<?xml version="1.0" encoding="UTF-8" standalone="no"?>
<!-- Created with Inkscape (http://www.inkscape.org/) -->

<svg
   xmlns:dc="http://purl.org/dc/elements/1.1/"
   xmlns:cc="http://creativecommons.org/ns#"
   xmlns:rdf="http://www.w3.org/1999/02/22-rdf-syntax-ns#"
   xmlns:svg="http://www.w3.org/2000/svg"
   xmlns="http://www.w3.org/2000/svg"
   xmlns:sodipodi="http://sodipodi.sourceforge.net/DTD/sodipodi-0.dtd"
   xmlns:inkscape="http://www.inkscape.org/namespaces/inkscape"
   width="210mm"
   height="297mm"
   viewBox="0 0 744.09448819 1052.3622047"
   id="svg2"
   version="1.1"
   inkscape:version="0.91 r13725"
   sodipodi:docname="android.svg">
  <defs
     id="defs4" />
  <sodipodi:namedview
     id="base"
     pagecolor="#ffffff"
     bordercolor="#666666"
     borderopacity="1.0"
     inkscape:pageopacity="0.0"
     inkscape:pageshadow="2"
     inkscape:zoom="0.27730746"
     inkscape:cx="-40.702998"
     inkscape:cy="665.25573"
     inkscape:document-units="px"
     inkscape:current-layer="layer1"
     showgrid="false"
     inkscape:snap-intersection-paths="false"
     inkscape:object-nodes="true"
     inkscape:snap-global="false"
     showguides="false"
     inkscape:guide-bbox="true"
     inkscape:window-width="1366"
     inkscape:window-height="716"
     inkscape:window-x="0"
     inkscape:window-y="0"
     inkscape:window-maximized="1">
    <sodipodi:guide
       position="379.63135,943.57647"
       orientation="0,1"
       id="guide7682" />
    <sodipodi:guide
       position="387.8842,1447.0007"
       orientation="1,0"
       id="guide7684" />
    <sodipodi:guide
       position="222.82709,720.74938"
       orientation="1,0"
       id="guide7701" />
    <sodipodi:guide
       position="550.19036,635.46987"
       orientation="1,0"
       id="guide7703" />
    <sodipodi:guide
       position="445.45462,929.81358"
       orientation="1,0"
       id="guide7707" />
    <sodipodi:guide
       position="333.60466,1058.1979"
       orientation="1,0"
       id="guide7709" />
    <sodipodi:guide
       position="1071.8144,145.89125"
       orientation="1,0"
       id="guide7833" />
  </sodipodi:namedview>
  <metadata
     id="metadata7">
    <rdf:RDF>
      <cc:Work
         rdf:about="">
        <dc:format>image/svg+xml</dc:format>
        <dc:type
           rdf:resource="http://purl.org/dc/dcmitype/StillImage" />
        <dc:title />
      </cc:Work>
    </rdf:RDF>
  </metadata>
  <g
     inkscape:label="Layer 1"
     inkscape:groupmode="layer"
     id="layer1">
    <path
       id="path7087"
       d="m 498.27317,-983.17713 -203.22071,120.91016 3.09961,236.44922 206.32227,115.53906 203.2207,-120.9082 -3.09961,-236.45117 -206.32226,-115.53907 z m 1.47461,112.38477 108.25781,60.62304 1.62695,124.06641 -106.63086,63.44141 -108.25781,-60.625 -1.62695,-124.06446 106.63086,-63.4414 z"
       style="opacity:1;fill:#4d4d4d;fill-opacity:1;fill-rule:evenodd;stroke:none;stroke-width:10;stroke-linecap:round;stroke-linejoin:round;stroke-miterlimit:4;stroke-dasharray:none;stroke-opacity:1"
       inkscape:connector-curvature="0" />
    <path
       style="opacity:1;fill:#1a1a1a;fill-opacity:1;fill-rule:evenodd;stroke:none;stroke-width:10;stroke-linecap:round;stroke-linejoin:round;stroke-miterlimit:4;stroke-dasharray:none;stroke-opacity:1"
       d="m 46.956727,204.76661 35.39049,8.98712 68.912933,68.91285 25.97922,-25.9792 -69.1255,-69.12538 0.0602,-0.0616 -9.968921,-35.34376 -38.613642,-12.05962 -3.39769,3.58041 16.69977,16.21037 13.13247,4.77131 5.23054,18.54518 -13.44491,13.80222 -18.6757,-4.74269 -5.56368,-14.52475 -15.51894,-15.53168 -4.08662,4.19509 12.98985,38.36458 z"
       id="rect7065"
       inkscape:connector-curvature="0"
       sodipodi:nodetypes="ccccccccccccccccccc"
       inkscape:export-xdpi="44.8979"
       inkscape:export-ydpi="44.8979" />
    <path
       style="opacity:1;fill:#225500;fill-opacity:1;fill-rule:evenodd;stroke:none;stroke-width:10;stroke-linecap:round;stroke-linejoin:round;stroke-miterlimit:4;stroke-dasharray:none;stroke-opacity:1"
       d="m 509.96875,113.38477 c -6.48298,-0.14559 -14.13708,4.07774 -19.63672,11.50781 l -44.33789,59.90039 a 164.42979,164.42979 0 0 0 -58.48047,-10.80859 164.42979,164.42979 0 0 0 -54.97851,9.67578 l -38.52344,-57.73633 c -7.1385,-10.6983 -18.74679,-15.40097 -26.02734,-10.54297 -7.28058,4.85799 -7.39436,17.38178 -0.25586,28.08008 l 35.875,53.76562 a 164.42979,164.42979 0 0 0 -80.51954,141.1875 164.42979,164.42979 0 0 0 0.0586,1.6543 l 0,65.82031 328.74219,0 0,-66.30273 a 164.42979,164.42979 0 0 0 0.0586,-1.17188 164.42979,164.42979 0 0 0 -77.23242,-139.30664 l 41.01758,-55.41601 c 7.65166,-10.33749 8.1483,-22.85137 1.11328,-28.0586 -1.9786,-1.46453 -4.33623,-2.19108 -6.87305,-2.24804 z M 316.10742,301.84375 a 22.007614,22.007614 0 0 1 22.00586,22.00586 22.007614,22.007614 0 0 1 -22.00586,22.00781 22.007614,22.007614 0 0 1 -22.00781,-22.00781 22.007614,22.007614 0 0 1 22.00781,-22.00586 z m 150.05274,0 a 22.007614,22.007614 0 0 1 22.00781,22.00586 22.007614,22.007614 0 0 1 -22.00781,22.00781 22.007614,22.007614 0 0 1 -22.00782,-22.00781 22.007614,22.007614 0 0 1 22.00782,-22.00586 z"
       id="path7719"
       inkscape:connector-curvature="0"
       inkscape:export-xdpi="44.8979"
       inkscape:export-ydpi="44.8979" />
    <path
       style="opacity:1;fill:#225500;fill-opacity:1;fill-rule:evenodd;stroke:none;stroke-width:10;stroke-linecap:round;stroke-linejoin:round;stroke-miterlimit:4;stroke-dasharray:none;stroke-opacity:1"
       d="M 223.14258 425.14453 L 223.14258 442.67969 L 223.14258 565.4668 L 223.14258 731.41797 L 551.88477 731.41797 L 551.88477 565.4668 L 551.88477 442.67969 L 551.88477 425.14453 L 223.14258 425.14453 z "
       id="path7059"
       inkscape:export-xdpi="44.8979"
       inkscape:export-ydpi="44.8979" />
    <rect
       style="opacity:1;fill:#225500;fill-opacity:1;fill-rule:evenodd;stroke:none;stroke-width:10;stroke-linecap:round;stroke-linejoin:round;stroke-miterlimit:4;stroke-dasharray:none;stroke-opacity:1"
       id="rect7102"
       width="63.271889"
       height="267.58401"
       x="137.54758"
       y="231.29784"
       ry="36.202541"
       inkscape:export-xdpi="44.8979"
       inkscape:export-ydpi="44.8979" />
    <rect
       ry="36.202579"
       y="427.52518"
       x="575.54761"
       height="267.58429"
       width="63.271889"
       id="rect7110"
       style="opacity:1;fill:#225500;fill-opacity:1;fill-rule:evenodd;stroke:none;stroke-width:10;stroke-linecap:round;stroke-linejoin:round;stroke-miterlimit:4;stroke-dasharray:none;stroke-opacity:1"
       inkscape:export-xdpi="44.8979"
       inkscape:export-ydpi="44.8979" />
    <rect
       ry="36.202541"
       y="231.29784"
       x="137.54758"
       height="267.58401"
       width="63.271889"
       id="rect7800"
       style="opacity:0.50100014;fill:#406627;fill-opacity:1;fill-rule:evenodd;stroke:none;stroke-width:10;stroke-linecap:round;stroke-linejoin:round;stroke-miterlimit:4;stroke-dasharray:none;stroke-opacity:1"
       inkscape:export-xdpi="44.8979"
       inkscape:export-ydpi="44.8979" />
    <path
       style="opacity:0.5;fill:#5e774d;fill-opacity:1;fill-rule:evenodd;stroke:none;stroke-width:10;stroke-linecap:round;stroke-linejoin:round;stroke-miterlimit:4;stroke-dasharray:none;stroke-opacity:1"
       d="M 274.65234 112.16992 C 272.11574 112.10302 269.72538 112.71181 267.67773 114.07812 C 260.39715 118.93612 260.28337 131.4599 267.42188 142.1582 L 303.29688 195.92383 A 164.42979 164.42979 0 0 0 222.77734 337.11133 A 164.42979 164.42979 0 0 0 222.83594 338.76562 L 222.83594 404.58594 L 389.15234 404.58594 L 389.15234 172.74609 A 164.42979 164.42979 0 0 0 387.20703 172.68164 A 164.42979 164.42979 0 0 0 332.22852 182.35742 L 293.70508 124.62109 C 288.57428 116.93169 281.13475 112.34089 274.65234 112.16992 z M 315.80078 300.54102 A 22.007614 22.007614 0 0 1 337.80664 322.54688 A 22.007614 22.007614 0 0 1 315.80078 344.55469 A 22.007614 22.007614 0 0 1 293.79297 322.54688 A 22.007614 22.007614 0 0 1 315.80078 300.54102 z M 222.83594 423.8418 L 222.83594 441.37695 L 222.83594 564.16406 L 222.83594 731.41797 L 389.15234 731.41797 L 389.15234 423.8418 L 222.83594 423.8418 z "
       id="path7059-7"
       inkscape:export-xdpi="44.8979"
       inkscape:export-ydpi="44.8979" />
  </g>
</svg>
