<?xml version="1.0" standalone="no"?>
<!DOCTYPE svg PUBLIC "-//W3C//DTD SVG 20010904//EN"
 "http://www.w3.org/TR/2001/REC-SVG-20010904/DTD/svg10.dtd">

<svg version="1.0" xmlns="http://www.w3.org/2000/svg"
 width="300.000000pt" height="450.000000pt" viewBox="0 0 640.000000 1280.000000"
 preserveAspectRatio="xMidYMid meet">
<metadata>
Created by potrace 1.15, written by Peter Selinger 2001-2017
</metadata>
<g transform="translate(0.000000,1280.000000) scale(0.100000,-0.100000)"
fill="#000000" stroke="none">
<path d="M720 12781 c-19 -11 -58 -27 -87 -36 -62 -18 -111 -57 -129 -102 -20
-46 -19 -229 1 -267 8 -15 15 -45 15 -65 0 -20 7 -47 15 -61 8 -14 17 -32 20
-40 27 -66 47 -100 121 -210 46 -69 109 -154 139 -188 30 -35 61 -76 69 -90
15 -30 126 -358 210 -621 64 -200 68 -171 -38 -291 -97 -108 -102 -130 -7 -30
50 53 80 79 81 68 0 -9 -5 -20 -10 -23 -6 -4 -8 -16 -5 -26 4 -11 0 -31 -9
-44 -15 -22 -15 -25 -1 -25 18 0 19 -12 3 -28 -9 -9 -9 -12 1 -12 10 0 12 -9
8 -30 -7 -31 9 -43 19 -15 8 19 24 19 24 0 0 -8 -11 -22 -25 -31 -29 -19 -34
-40 -6 -24 27 14 31 13 31 -9 0 -11 -12 -34 -27 -53 l-28 -33 30 23 c82 62
118 84 124 76 3 -5 15 -14 27 -21 18 -10 12 13 -43 155 -35 92 -100 281 -144
420 -44 139 -100 310 -124 379 -50 141 -53 160 -27 179 16 13 16 14 -5 20 -12
3 -20 11 -17 18 3 7 -21 37 -53 67 -173 162 -313 392 -260 426 40 26 79 31
130 17 29 -8 74 -14 100 -14 44 0 49 3 69 37 22 36 39 32 19 -6 -14 -25 -14
-68 -1 -76 16 -10 40 14 40 39 0 24 35 86 48 86 5 0 -1 -21 -14 -47 -28 -58
-42 -109 -27 -100 6 4 14 19 17 34 4 16 15 46 25 68 10 22 25 58 35 79 10 22
20 72 22 110 3 39 10 97 17 129 10 53 15 61 47 77 50 26 70 13 52 -32 -7 -18
-15 -40 -17 -48 -2 -8 -9 -31 -14 -50 -6 -19 -11 -52 -11 -73 0 -21 -5 -47
-10 -57 -8 -15 -6 -21 7 -29 16 -9 18 -27 15 -189 -2 -146 1 -196 16 -273 25
-122 98 -283 190 -423 40 -60 72 -116 72 -124 0 -26 74 -156 139 -242 l64 -85
-6 -215 c-2 -118 -10 -240 -17 -270 -6 -30 -39 -111 -71 -180 -33 -69 -53
-118 -45 -110 29 30 123 227 135 285 6 33 16 165 20 293 4 128 12 237 17 242
33 33 119 -102 170 -270 14 -47 30 -89 35 -94 15 -16 10 36 -6 64 -8 14 -14
38 -15 53 0 16 -5 37 -11 49 -17 32 -3 33 27 2 38 -41 89 -123 103 -166 7 -20
26 -56 44 -80 18 -24 41 -68 52 -98 14 -38 26 -56 40 -58 11 -2 54 -36 95 -76
75 -73 162 -136 187 -136 23 0 14 8 -34 32 -28 13 -86 61 -138 114 -49 50 -95
93 -101 95 -6 2 -26 36 -45 74 -86 171 -142 262 -192 310 -29 28 -73 79 -98
115 -66 92 -82 105 -110 89 -21 -11 -26 -8 -66 37 -23 27 -63 85 -89 129 -26
44 -86 143 -134 220 -187 299 -210 381 -210 730 0 105 0 216 0 248 -1 32 7 86
16 120 22 83 22 88 2 100 -22 15 -86 -7 -111 -37 -17 -21 -17 -21 -32 -1 -40
52 -75 81 -134 108 -84 38 -154 44 -201 18z m100 -15 c0 -3 -4 -8 -10 -11 -5
-3 -10 -1 -10 4 0 6 5 11 10 11 6 0 10 -2 10 -4z m55 -16 c-6 -18 -3 -20 19
-14 35 8 101 -35 123 -80 l16 -33 -42 -42 c-22 -22 -45 -41 -51 -41 -5 0 -10
-7 -10 -15 0 -23 16 -18 56 17 l37 33 -5 -62 c-3 -34 -13 -72 -22 -85 l-16
-22 0 27 c0 16 -4 26 -10 22 -5 -3 -10 3 -10 14 0 18 -5 20 -32 15 -25 -4 -29
-3 -18 5 13 9 12 12 -5 25 -11 9 -15 16 -10 16 6 0 3 5 -5 10 -13 8 -12 10 3
10 9 0 17 5 17 10 0 6 -8 10 -17 11 -12 1 -9 4 7 8 l25 7 -34 17 c-18 9 -37
14 -42 11 -5 -3 -9 0 -9 5 0 6 -8 11 -17 11 -14 1 -12 5 10 23 28 23 36 47 16
47 -6 0 -9 6 -6 13 3 6 8 21 12 32 6 19 6 19 -8 3 -19 -24 -30 -23 -15 2 18
28 52 27 43 0z m-95 0 c0 -13 -28 -25 -38 -16 -3 4 0 11 8 16 20 13 30 12 30
0z m-144 -55 c18 -14 18 -14 -9 -15 -37 0 -67 -17 -67 -37 0 -13 3 -13 15 -3
13 10 15 9 15 -12 0 -28 -17 -48 -42 -48 -24 0 -23 30 2 79 26 52 51 63 86 36z
m-60 -168 c12 -41 8 -57 -14 -57 -15 0 -15 2 -2 10 13 8 12 10 -4 10 -15 0
-16 3 -6 15 10 12 10 15 0 15 -9 0 -10 3 -1 13 6 8 8 17 4 20 -3 4 -2 7 3 7 5
0 14 -15 20 -33z m204 -85 c36 -20 59 -47 48 -57 -3 -4 -36 3 -73 14 -37 12
-78 21 -91 21 -26 0 -74 -19 -74 -30 0 -4 43 -12 96 -19 53 -6 104 -16 114
-21 21 -11 60 -58 60 -71 0 -18 -36 -8 -65 17 -27 23 -37 25 -92 22 -47 -3
-68 -9 -86 -26 -30 -28 -52 -28 -71 0 -14 19 -14 24 -1 38 20 23 19 40 -6 67
-18 18 -20 25 -10 37 25 30 200 35 251 8z m-107 -49 c-7 -2 -19 -2 -25 0 -7 3
-2 5 12 5 14 0 19 -2 13 -5z m72 -13 c3 -6 -1 -7 -9 -4 -18 7 -21 14 -7 14 6
0 13 -4 16 -10z m120 -30 c3 -5 -1 -10 -9 -10 -9 0 -16 5 -16 10 0 6 4 10 9
10 6 0 13 -4 16 -10z m-178 -56 c-3 -3 -12 -4 -19 -1 -8 3 -5 6 6 6 11 1 17
-2 13 -5z m478 -1415 c11 -17 -1 -21 -15 -4 -8 9 -8 15 -2 15 6 0 14 -5 17
-11z m10 -49 c7 -12 -12 -40 -26 -40 -10 0 -12 34 -2 43 9 10 21 9 28 -3z m25
-49 c0 -12 -20 -25 -27 -18 -7 7 6 27 18 27 5 0 9 -4 9 -9z m10 -40 c0 -13
-29 -35 -37 -28 -7 8 15 37 28 37 5 0 9 -4 9 -9z m-50 -35 c0 -15 -18 -31 -26
-23 -7 7 7 37 17 37 5 0 9 -6 9 -14z m70 -18 c0 -18 -2 -20 -9 -8 -6 8 -7 18
-5 22 9 14 14 9 14 -14z m-20 -2 c0 -16 -14 -36 -26 -36 -16 0 -16 2 -8 24 5
14 34 24 34 12z m40 -45 c0 -19 -52 -71 -71 -71 -5 0 -9 11 -9 24 0 16 11 31
33 45 40 26 47 26 47 2z"/>
<path d="M1100 12440 c0 -5 5 -10 10 -10 6 0 10 5 10 10 0 6 -4 10 -10 10 -5
0 -10 -4 -10 -10z"/>
<path d="M958 11663 c6 -2 18 -2 25 0 6 3 1 5 -13 5 -14 0 -19 -2 -12 -5z"/>
<path d="M4565 10820 c-7 -12 2 -12 30 0 19 8 19 9 -2 9 -12 1 -25 -3 -28 -9z"/>
<path d="M4085 10788 c4 -9 -6 -13 -32 -13 -49 0 -54 -28 -5 -33 60 -6 29 -42
-37 -43 -41 0 -43 -2 -23 -11 12 -6 22 -15 22 -19 0 -16 -42 -20 -70 -5 -26
13 -33 13 -60 0 -28 -14 -122 -115 -115 -123 2 -2 18 8 34 22 38 32 173 64
156 37 -3 -5 -15 -10 -26 -10 -28 0 -99 -38 -99 -53 0 -7 -9 -20 -20 -30 -11
-9 -20 -26 -20 -37 0 -11 -4 -20 -10 -20 -5 0 -10 12 -10 26 0 14 -4 23 -10
19 -16 -10 -12 -35 10 -62 26 -34 25 -55 -5 -83 -29 -27 -49 -91 -41 -126 5
-18 0 -27 -21 -41 -40 -26 -50 -41 -62 -102 -17 -83 -15 -141 5 -141 13 0 14
-3 4 -15 -13 -16 -4 -59 11 -50 12 8 12 92 -1 100 -17 10 -12 104 7 136 29 49
94 49 75 1 -4 -12 -1 -14 12 -9 10 4 22 7 27 7 17 0 9 29 -13 50 l-23 22 30
-4 c23 -2 30 -9 35 -33 4 -16 12 -40 18 -52 7 -13 10 -41 7 -65 l-5 -43 14 30
c7 17 16 45 19 63 6 28 4 32 -14 32 -19 0 -21 4 -15 31 3 17 6 39 6 48 0 12 5
10 20 -9 20 -25 20 -25 36 -5 15 21 12 81 -8 118 -17 33 10 17 33 -20 22 -35
23 -36 32 -14 12 26 44 35 98 28 37 -5 39 -4 39 22 0 36 10 44 30 26 16 -14
18 -14 23 0 10 25 34 17 63 -20 14 -19 31 -32 36 -29 5 3 17 -1 26 -9 9 -8 27
-18 39 -21 20 -6 22 -3 25 36 4 43 4 43 16 16 14 -35 32 -36 32 -4 0 14 5 28
10 31 8 5 7 12 -2 23 -11 13 -10 15 14 9 15 -4 30 -3 33 3 3 5 15 10 26 10 16
0 19 7 19 45 0 50 10 55 41 24 14 -14 19 -30 17 -52 -3 -28 -7 -32 -35 -35
-40 -4 -43 -17 -7 -26 20 -5 33 -1 52 16 l25 23 -7 -53 c-9 -72 9 -60 24 16
20 101 30 124 25 57 -3 -33 -12 -82 -20 -109 -20 -64 -19 -73 4 -52 25 23 41
13 41 -25 0 -17 4 -28 8 -25 8 5 16 -166 16 -354 0 -76 -6 -101 -53 -240 -29
-85 -71 -191 -94 -235 -45 -87 -120 -170 -178 -198 -57 -26 -136 -30 -193 -9
-57 21 -66 34 -34 50 20 9 17 10 -19 5 -51 -7 -60 12 -13 28 17 6 30 16 30 21
0 10 -32 7 -75 -7 l-20 -7 20 17 c20 17 20 17 -2 12 -13 -3 -23 -1 -23 4 0 5
9 9 20 9 11 0 20 4 20 9 0 5 -12 6 -27 2 -24 -7 -34 -2 -70 35 -71 74 -149
263 -162 394 -7 72 -8 73 -17 40 -17 -59 -57 -51 -94 19 l-19 36 -1 -38 c0
-27 7 -45 25 -62 25 -26 65 -34 65 -13 0 25 16 -6 26 -53 l11 -50 -31 7 c-17
4 -41 13 -54 22 -36 23 -138 11 -204 -25 -50 -27 -56 -28 -87 -15 -49 20 -49
7 0 -18 46 -24 35 -27 133 27 44 24 102 28 130 9 14 -9 35 -16 46 -16 59 0
108 -59 125 -152 8 -40 -41 -201 -80 -263 -30 -48 -60 -111 -89 -184 -27 -68
-51 -81 -43 -25 3 22 11 58 18 82 11 37 11 47 -1 69 -29 50 -45 52 -90 8 -44
-43 -56 -38 -14 6 l27 28 -38 -12 c-44 -13 -162 -122 -144 -132 12 -8 -82 -75
-106 -75 -21 0 -19 36 6 148 20 84 26 98 64 136 24 23 74 59 111 80 38 20 58
34 44 31 -50 -13 -164 -90 -192 -130 -37 -53 -75 -226 -59 -267 12 -31 45 -38
55 -13 3 8 9 14 13 13 11 -3 123 73 123 83 0 5 -8 6 -17 3 -15 -5 -15 -3 2 11
11 9 19 20 18 24 -1 5 14 23 32 41 19 19 35 30 35 26 0 -4 -14 -21 -31 -37
-17 -16 -26 -29 -19 -29 6 0 8 -4 5 -10 -10 -16 4 -12 43 15 20 14 44 25 54
25 9 0 20 5 23 10 3 6 10 10 16 10 14 0 11 -64 -6 -86 -10 -13 -14 -46 -15
-108 0 -89 0 -90 -56 -195 -31 -58 -66 -119 -78 -136 -52 -72 -106 -207 -106
-263 0 -11 -7 -25 -15 -32 -8 -7 -12 -17 -8 -23 4 -6 6 -29 4 -51 l-3 -39 33
27 c22 19 39 26 55 22 23 -6 38 7 39 34 0 11 16 16 65 20 55 5 61 7 37 14 -42
13 -115 1 -140 -22 -12 -11 -33 -23 -46 -27 -33 -10 -24 12 22 49 28 22 50 30
92 34 56 5 88 22 41 22 -44 0 -28 18 22 25 74 10 73 13 -5 14 -135 2 -75 28
72 32 42 1 45 2 20 8 l-30 7 30 11 30 11 -42 1 c-68 1 -50 21 20 22 94 2 32
17 -74 18 -67 1 -88 4 -93 16 -4 12 3 15 35 15 24 0 38 -4 34 -10 -4 -7 3 -7
20 0 15 6 58 10 98 10 52 0 68 3 60 11 -7 7 -51 11 -114 11 -56 -1 -107 2
-112 5 -21 13 25 23 118 25 95 1 97 2 32 7 -103 9 -82 26 38 29 65 2 105 7
105 13 0 7 -28 8 -86 4 -64 -6 -85 -5 -80 4 4 6 40 11 89 12 l82 1 -65 13
c-35 7 -79 11 -97 8 -21 -4 -33 -1 -33 6 0 7 39 11 123 12 98 1 112 3 72 9
-27 5 -78 9 -112 9 -34 1 -65 6 -68 11 -4 6 29 10 92 11 64 0 91 3 78 9 -11 5
-39 9 -62 9 -24 1 -43 6 -43 11 0 6 34 10 82 10 50 0 78 4 73 9 -6 5 -23 11
-38 13 -55 6 -25 23 50 28 l78 5 -55 8 c-30 5 -70 8 -88 8 -23 -1 -32 3 -29
11 3 9 28 12 88 11 48 -1 74 1 60 5 -36 11 -38 31 -3 38 21 4 29 11 25 20 -3
9 2 14 13 15 11 1 6 5 -13 11 -18 6 -33 15 -33 21 0 6 -5 5 -13 -1 -8 -7 -40
-9 -88 -5 -54 5 -67 9 -49 14 39 11 90 10 90 -1 0 -7 7 -7 18 -2 9 5 42 9 72
10 30 1 59 7 65 13 7 7 -32 9 -128 7 -75 -2 -137 0 -137 3 0 15 40 19 190 19
l158 0 16 -26 c19 -28 52 -30 69 -2 8 12 7 21 -2 32 -11 13 -34 16 -106 16
-88 0 -93 1 -88 20 3 11 13 20 22 20 9 0 22 5 28 11 9 9 20 5 43 -15 25 -21
42 -26 83 -26 48 1 50 2 33 15 -19 14 -17 15 20 17 21 0 50 0 64 -1 52 -5 109
10 115 29 3 10 15 22 27 26 36 11 92 48 80 52 -7 2 -10 8 -7 13 4 5 12 3 20
-4 10 -9 10 -15 2 -26 -10 -11 -7 -13 13 -7 23 6 23 5 6 -6 -33 -22 -68 -59
-62 -65 3 -3 15 6 27 20 19 26 48 39 34 17 -4 -7 2 -9 19 -4 36 9 33 -12 -5
-31 -17 -9 -28 -19 -25 -22 3 -3 17 2 31 11 15 10 32 15 38 13 7 -2 -3 -13
-22 -23 -18 -11 -61 -36 -96 -56 -60 -36 -73 -38 -125 -22 -9 3 3 16 35 34 28
16 46 30 40 30 -20 0 -130 -62 -130 -73 0 -8 32 -13 105 -15 83 -2 102 0 92
10 -19 19 -15 26 28 48 76 39 98 20 45 -39 -25 -27 -57 -48 -103 -65 -79 -31
-89 -32 -71 -9 12 15 12 16 -6 9 -52 -21 -60 -19 -30 8 l30 26 -35 -13 c-20
-7 -55 -11 -84 -7 l-48 5 22 20 c12 11 26 28 31 37 8 16 5 18 -26 18 -31 0
-35 -3 -35 -25 0 -28 -25 -45 -66 -45 -34 0 -25 -10 18 -20 l33 -8 -32 -1
c-30 -1 -49 -21 -20 -21 8 0 7 -4 -3 -10 -13 -8 -13 -10 2 -10 10 0 25 -9 35
-19 10 -11 29 -21 43 -24 33 -6 -85 2 -130 9 -26 4 -31 3 -20 -5 8 -6 46 -13
83 -17 71 -7 81 -19 36 -41 -13 -7 -28 -18 -34 -25 -18 -24 -65 -38 -128 -39
-34 -1 -54 -3 -45 -6 9 -2 15 -10 12 -18 -4 -9 8 -15 38 -20 30 -6 38 -10 25
-14 -10 -4 -17 -11 -15 -16 2 -6 -12 -11 -29 -13 -39 -4 -45 -22 -7 -22 14 0
23 -4 19 -10 -3 -5 -17 -10 -31 -10 -13 0 -24 -4 -24 -10 0 -5 8 -10 17 -10
25 0 9 -11 -29 -20 -31 -7 -31 -8 -6 -9 49 -2 42 -21 -9 -22 -32 -1 -38 -3
-18 -6 52 -7 59 -11 45 -28 -8 -10 -33 -15 -74 -16 l-61 -1 54 -9 c64 -11 78
-19 32 -19 -19 0 -30 -4 -26 -10 3 -5 15 -10 26 -10 10 0 19 -2 19 -6 0 -3
-17 -31 -39 -62 -45 -67 -114 -133 -168 -161 -21 -10 -67 -50 -103 -86 -36
-37 -79 -73 -97 -81 -34 -15 -131 -17 -173 -4 -22 6 -23 8 -7 15 9 4 41 13 70
20 l52 13 -59 1 c-49 1 -57 3 -47 15 8 9 24 12 49 9 20 -3 53 -1 72 4 34 10
34 10 -28 17 -35 5 -61 10 -58 13 3 3 31 9 63 13 l58 7 -46 2 c-82 2 -106 -7
-129 -51 -21 -40 -45 -172 -34 -189 9 -15 24 -10 18 6 -3 8 1 24 10 37 20 29
20 35 -1 42 -10 3 0 3 22 1 22 -3 60 -5 85 -5 41 0 43 -1 28 -16 -9 -9 -35
-18 -58 -19 -52 -3 -57 -8 -36 -39 16 -25 15 -26 -21 -61 -24 -22 -32 -35 -23
-35 9 0 94 71 189 158 95 86 207 180 248 208 122 84 155 122 198 232 47 121
73 162 147 235 89 87 98 80 106 -80 2 -57 8 -103 12 -103 4 0 10 30 13 67 5
62 8 69 46 105 23 21 44 38 46 38 3 0 5 -12 5 -26 0 -14 4 -23 10 -19 6 3 15
-4 20 -17 6 -13 17 -34 25 -48 8 -14 15 -40 15 -58 0 -40 38 -82 73 -82 58 0
195 200 249 362 11 34 36 94 55 132 31 62 34 75 29 119 -9 64 -50 155 -115
250 -51 76 -68 94 -78 83 -3 -3 12 -28 33 -56 22 -28 38 -59 36 -69 -2 -11 15
-37 38 -62 37 -40 70 -114 70 -157 0 -7 -16 -50 -36 -95 -20 -45 -47 -112 -59
-149 -54 -157 -167 -338 -211 -338 -20 0 -41 38 -48 88 -8 57 -45 128 -96 187
-43 50 -49 65 -25 65 55 0 232 142 301 241 23 34 26 44 16 60 -7 10 -12 45
-12 78 0 43 -5 65 -20 84 -11 14 -20 31 -20 39 0 8 -5 19 -12 26 -8 8 -5 26
12 74 45 127 90 210 90 168 0 -17 17 -11 49 16 39 33 40 48 1 26 -26 -15 -31
-15 -44 -2 -14 13 -13 23 1 85 11 43 19 61 21 48 2 -13 7 -23 12 -23 17 0 41
61 38 93 -3 36 -33 50 -42 20 -3 -10 -4 17 -3 59 2 64 6 80 22 92 26 20 51 20
59 0 11 -27 6 -167 -8 -231 -7 -35 -9 -63 -4 -63 4 0 8 2 8 4 0 2 9 48 20 101
11 53 20 114 20 135 0 81 -38 133 -81 110 -29 -16 -34 -7 -14 24 14 22 16 33
7 66 -6 23 -7 53 -2 68 l8 27 8 -34 7 -34 18 34 c24 44 23 71 -1 102 -22 27
-26 42 -10 32 15 -9 12 90 -3 128 -8 18 -26 47 -42 65 -15 18 -25 35 -23 38 8
7 68 -65 68 -81 0 -8 5 -15 10 -15 17 0 11 45 -12 87 -13 22 -42 57 -65 77
-37 33 -47 37 -87 34 -61 -4 -60 16 1 22 35 4 49 10 51 23 7 36 -33 33 -145
-10 -7 -3 -13 0 -13 6 0 6 8 11 18 11 10 0 29 11 42 25 12 13 38 29 57 36 59
19 28 22 -34 3 -32 -10 -73 -17 -91 -15 -24 2 -41 -4 -57 -19 -13 -12 -29 -19
-35 -15 -8 5 -6 11 6 19 12 10 14 15 5 20 -6 4 -18 3 -26 -4 -10 -9 -14 -7
-17 7 -3 13 -9 8 -24 -22 -10 -22 -23 -43 -27 -46 -4 -3 -7 -25 -6 -48 4 -53
-9 -62 -83 -59 -47 2 -58 6 -58 20 0 11 5 15 15 12 10 -4 15 0 15 14 0 33 16
35 39 5 l20 -28 1 30 c0 46 -32 89 -94 123 -60 34 -78 39 -71 20z m94 -63 c18
-18 7 -45 -19 -45 -13 0 -20 7 -20 19 0 11 -4 23 -10 26 -5 3 -10 11 -10 16 0
13 40 2 59 -16z m172 -92 c-9 -15 -10 -12 -11 17 0 19 4 46 8 60 6 21 7 19 10
-17 2 -24 -1 -51 -7 -60z m134 27 c-3 -5 -12 -10 -18 -10 -7 0 -6 4 3 10 19
12 23 12 15 0z m-75 -10 c0 -5 -5 -10 -11 -10 -5 0 -7 5 -4 10 3 6 8 10 11 10
2 0 4 -4 4 -10z m-493 -16 c-3 -3 -12 -4 -19 -1 -8 3 -5 6 6 6 11 1 17 -2 13
-5z m523 -14 c0 -7 7 -7 21 0 18 10 50 8 102 -6 33 -10 6 -24 -33 -18 -21 4
-52 2 -69 -4 -19 -7 -33 -7 -36 -1 -4 5 -15 9 -26 9 -24 0 -25 17 -1 23 30 8
42 7 42 -3z m216 -5 c18 -14 18 -14 -6 -15 -14 -1 -19 -4 -12 -7 12 -5 17 -33
5 -33 -14 0 -43 34 -43 52 0 22 28 24 56 3z m-636 -20 c7 -8 21 -15 31 -15 12
0 19 -7 19 -20 0 -31 -25 -34 -62 -8 -18 12 -34 23 -36 24 -1 1 0 9 4 18 8 20
28 21 44 1z m74 9 c16 -6 23 -34 8 -34 -10 0 -32 22 -32 32 0 10 3 10 24 2z
m18 -78 c-16 -17 -36 -42 -45 -56 l-17 -24 0 26 c0 17 14 39 40 66 22 22 41
46 41 53 1 8 4 3 6 -10 3 -16 -4 -33 -25 -55z m249 64 c5 0 9 -4 9 -8 0 -12
-75 -52 -97 -52 -11 0 -26 -11 -33 -25 -7 -14 -17 -25 -22 -25 -11 0 -10 18 2
25 20 12 10 26 -10 15 -13 -7 -20 -7 -20 -1 0 17 56 41 94 41 19 0 38 5 41 10
3 6 1 10 -5 10 -6 0 -8 5 -5 11 4 6 14 8 22 5 8 -3 19 -6 24 -6z m162 -32
c-17 -8 -29 -8 -45 0 -20 9 -18 11 22 11 40 0 42 -2 23 -11z m-109 -20 c-32
-26 -75 -32 -67 -10 7 16 39 30 72 31 23 1 23 1 -5 -21z m180 4 c2 -4 -4 -8
-15 -8 -10 0 -19 4 -19 8 0 4 6 8 14 8 8 0 17 -4 20 -8z m-154 -12 c0 -5 -7
-10 -16 -10 -8 0 -12 5 -9 10 3 6 10 10 16 10 5 0 9 -4 9 -10z m96 -17 c-7 -7
-26 7 -26 19 0 6 6 6 15 -2 9 -7 13 -15 11 -17z m-672 -46 c-7 -46 -19 -60
-30 -33 -6 15 23 92 31 84 3 -3 2 -26 -1 -51z m126 44 c0 -10 -24 -21 -43 -21
-7 0 -3 7 7 15 22 17 36 19 36 6z m415 -20 c-3 -6 -11 -11 -17 -11 -6 0 -6 6
2 15 14 17 26 13 15 -4z m50 9 c-3 -5 -10 -10 -16 -10 -5 0 -9 5 -9 10 0 6 7
10 16 10 8 0 12 -4 9 -10z m-631 -25 c-4 -8 -8 -15 -10 -15 -2 0 -4 7 -4 15 0
8 4 15 10 15 5 0 7 -7 4 -15z m219 -60 c-3 -9 -8 -14 -10 -11 -3 3 -2 9 2 15
9 16 15 13 8 -4z m217 -86 c0 -12 -37 -12 -44 0 -7 11 14 20 32 13 6 -2 12 -8
12 -13z m33 -11 c4 -12 4 -24 1 -27 -6 -7 -24 20 -24 37 0 21 17 13 23 -10z
m-333 -9 c0 -6 -4 -7 -10 -4 -5 3 -10 11 -10 16 0 6 5 7 10 4 6 -3 10 -11 10
-16z m790 -49 c0 -21 -15 -27 -25 -10 -7 12 2 30 16 30 5 0 9 -9 9 -20z m-883
-22 c-3 -7 -5 -2 -5 12 0 14 2 19 5 13 2 -7 2 -19 0 -25z m-107 13 c0 -6 -4
-13 -10 -16 -5 -3 -10 1 -10 9 0 9 5 16 10 16 6 0 10 -4 10 -9z m990 -229 c0
-5 -12 -14 -27 -21 l-28 -11 24 20 c26 22 31 24 31 12z m-230 -762 c-16 -31
-23 -18 -8 15 7 15 14 23 16 17 2 -6 -2 -21 -8 -32z m69 -48 c0 -30 -2 -33 -9
-17 -12 28 -12 67 0 60 6 -3 10 -23 9 -43z m132 -4 c11 -21 11 -22 -4 -9 -10
7 -17 17 -17 22 0 15 9 10 21 -13z m-831 -38 c0 -5 -4 -10 -10 -10 -5 0 -10 5
-10 10 0 6 5 10 10 10 6 0 10 -4 10 -10z m-30 -40 c0 -5 -4 -10 -9 -10 -6 0
-13 5 -16 10 -3 6 1 10 9 10 9 0 16 -4 16 -10z m70 -25 c0 -8 -4 -15 -10 -15
-5 0 -7 7 -4 15 4 8 8 15 10 15 2 0 4 -7 4 -15z m217 9 c-3 -3 -12 -4 -19 -1
-8 3 -5 6 6 6 11 1 17 -2 13 -5z m-262 -14 c-3 -5 -11 -10 -16 -10 -6 0 -7 5
-4 10 3 6 11 10 16 10 6 0 7 -4 4 -10z m-62 -7 c-7 -2 -19 -2 -25 0 -7 3 -2 5
12 5 14 0 19 -2 13 -5z m-33 -33 c0 -5 -4 -10 -10 -10 -5 0 -10 5 -10 10 0 6
5 10 10 10 6 0 10 -4 10 -10z m80 0 c0 -5 -12 -10 -26 -10 -14 0 -23 4 -19 10
3 6 15 10 26 10 10 0 19 -4 19 -10z m70 0 c0 -5 -9 -10 -21 -10 -11 0 -17 5
-14 10 3 6 13 10 21 10 8 0 14 -4 14 -10z m185 -41 c11 -17 -1 -21 -15 -4 -8
9 -8 15 -2 15 6 0 14 -5 17 -11z m-310 -79 c4 -6 -8 -10 -29 -10 -19 0 -41 -3
-50 -6 -9 -3 -16 -1 -16 4 0 6 15 13 33 15 17 2 37 5 44 5 6 1 15 -2 18 -8z
m85 -10 c-20 -13 -50 -13 -50 0 0 6 15 10 33 10 24 0 28 -3 17 -10z m-190 -25
c0 -2 -10 -10 -22 -16 -21 -11 -22 -11 -9 4 13 16 31 23 31 12z m56 -10 c-11
-8 -27 -15 -35 -15 -13 1 -12 4 3 15 11 8 27 15 35 15 13 -1 12 -4 -3 -15z
m84 6 c0 -10 -25 -21 -48 -21 -15 1 -14 3 2 15 22 17 46 20 46 6z m455 -12
c-18 -5 -33 -5 -39 1 -7 7 4 10 30 9 39 -1 39 -1 9 -10z m100 1 c-3 -5 -13
-10 -20 -10 -9 0 -12 -6 -9 -15 5 -12 -2 -15 -29 -15 -36 0 -65 20 -30 20 10
0 27 7 37 15 22 17 61 20 51 5z m-698 -36 c-30 -16 -44 -14 -32 5 3 6 18 11
33 11 l27 -1 -28 -15z m576 -21 c-7 -2 -19 -2 -25 0 -7 3 -2 5 12 5 14 0 19
-2 13 -5z m-553 -23 c-16 -11 -77 -14 -67 -4 8 8 71 22 77 17 2 -2 -2 -8 -10
-13z m-80 0 c0 -5 -5 -10 -11 -10 -5 0 -7 5 -4 10 3 6 8 10 11 10 2 0 4 -4 4
-10z m678 -90 c22 -26 64 -92 60 -96 -3 -2 -20 20 -39 49 -25 39 -40 52 -57
51 -15 0 -21 4 -18 12 3 8 1 16 -4 19 -6 4 -10 11 -10 17 0 11 39 -19 68 -52z
m-263 -10 c4 -6 -9 -10 -32 -9 -30 0 -34 2 -18 9 27 12 43 12 50 0z m205 -25
c-7 -9 -15 -13 -17 -11 -7 7 7 26 19 26 6 0 6 -6 -2 -15z m-680 -45 c-19 -13
-30 -13 -30 0 0 6 10 10 23 10 18 0 19 -2 7 -10z m-140 -170 c0 -5 -4 -10 -10
-10 -5 0 -10 5 -10 10 0 6 5 10 10 10 6 0 10 -4 10 -10z m95 0 c-3 -5 -19 -10
-36 -10 -16 0 -29 5 -29 10 0 6 16 10 36 10 21 0 33 -4 29 -10z m-55 -30 c0
-5 -14 -10 -31 -10 -17 0 -28 4 -24 10 3 6 17 10 31 10 13 0 24 -4 24 -10z
m-54 -47 c-1 -13 6 -18 22 -17 12 0 22 -3 22 -7 0 -9 -37 -19 -72 -19 -33 0
-33 2 -12 35 19 29 42 33 40 8z m-36 -67 c0 -3 -4 -8 -10 -11 -5 -3 -10 -1
-10 4 0 6 5 11 10 11 6 0 10 -2 10 -4z m5 -386 c-3 -5 -15 -10 -26 -10 -10 0
-19 5 -19 10 0 6 12 10 26 10 14 0 23 -4 19 -10z"/>
<path d="M4220 10780 c0 -5 3 -10 8 -11 4 0 18 -2 32 -5 24 -4 24 -3 6 11 -23
17 -46 20 -46 5z"/>
<path d="M863 10588 c-140 -144 -210 -228 -189 -228 2 0 48 51 103 113 54 61
113 129 132 150 56 62 29 42 -46 -35z"/>
<path d="M1203 10515 c-36 -32 -17 -32 22 0 17 13 25 24 18 25 -7 0 -25 -11
-40 -25z"/>
<path d="M1305 10500 c-4 -12 -4 -24 -1 -27 7 -8 -13 -33 -27 -33 -5 0 -7 14
-4 35 3 19 4 35 1 35 -13 0 -61 -30 -78 -49 -24 -27 -12 -27 25 0 l29 20 0
-25 c0 -38 -10 -55 -42 -72 -16 -9 -27 -18 -24 -21 3 -3 17 2 30 11 14 9 28
16 31 16 3 0 5 -30 5 -66 0 -55 3 -65 15 -60 8 3 22 9 30 12 23 9 18 -11 -11
-45 l-26 -31 33 17 c19 10 40 26 48 37 13 18 14 18 24 0 8 -14 5 -22 -14 -37
-15 -13 -18 -18 -7 -14 10 3 20 1 24 -4 4 -6 15 -2 30 12 13 12 26 21 28 18
15 -17 37 -82 32 -95 -3 -9 2 -28 13 -42 55 -79 103 -197 117 -289 8 -52 20
-108 28 -126 21 -51 63 -95 104 -108 20 -6 68 -27 105 -47 57 -29 79 -49 132
-116 35 -45 74 -91 87 -103 23 -22 93 -56 182 -88 71 -26 177 -129 220 -216
58 -117 66 -192 30 -294 -6 -18 -5 -18 8 -5 19 18 48 104 48 140 0 14 -6 34
-14 45 -14 20 -32 83 -28 98 3 12 -90 128 -137 170 -45 40 -104 72 -199 107
-53 19 -73 34 -120 88 -150 172 -180 195 -304 242 -52 19 -60 27 -84 73 -17
34 -31 86 -40 150 -12 81 -22 114 -63 195 -59 118 -77 177 -60 198 9 11 7 18
-14 34 -30 24 -60 76 -107 185 -41 96 -46 103 -55 75z m30 -69 c3 -5 1 -12 -5
-16 -5 -3 -10 1 -10 9 0 18 6 21 15 7z m-27 -62 c2 -49 -9 -79 -29 -79 -13 0
-11 47 2 72 8 15 8 19 0 14 -15 -10 -14 27 1 42 18 18 23 8 26 -49z m42 -4 c0
-14 -4 -25 -10 -25 -5 0 -10 11 -10 25 0 14 5 25 10 25 6 0 10 -11 10 -25z
m11 -58 c-12 -31 -31 -44 -31 -21 0 17 30 58 37 50 2 -2 -1 -15 -6 -29z m39
-63 c0 -13 -4 -24 -10 -24 -5 0 -10 14 -10 31 0 17 4 28 10 24 6 -3 10 -17 10
-31z"/>
<path d="M1109 10440 c-13 -10 -19 -19 -13 -20 6 0 19 9 29 20 23 26 14 26
-16 0z"/>
<path d="M1560 10334 c-12 -19 -20 -37 -18 -39 2 -3 15 13 27 35 28 50 21 53
-9 4z"/>
<path d="M631 10309 c-1 -15 8 -34 21 -45 17 -14 19 -15 10 -2 -8 9 -17 29
-22 45 l-8 28 -1 -26z"/>
<path d="M4130 10260 c0 -5 4 -10 9 -10 6 0 13 5 16 10 3 6 -1 10 -9 10 -9 0
-16 -4 -16 -10z"/>
<path d="M2492 10217 c26 -23 67 -64 92 -92 25 -27 45 -45 46 -39 0 14 -160
174 -174 174 -6 -1 10 -20 36 -43z"/>
<path d="M700 10232 c0 -5 57 -31 128 -57 70 -25 163 -67 207 -92 78 -44 82
-45 150 -40 39 3 94 14 124 26 62 23 131 67 131 82 0 6 -14 1 -30 -11 -41 -29
-133 -65 -202 -80 l-57 -11 -123 59 c-68 33 -157 70 -198 82 -41 12 -87 29
-102 36 -16 8 -28 11 -28 6z"/>
<path d="M3677 10086 c-4 -10 -7 -30 -6 -44 1 -25 1 -25 10 6 11 37 7 67 -4
38z"/>
<path d="M2673 10036 c10 -8 51 -22 90 -32 40 -9 98 -30 130 -46 31 -15 57
-26 57 -24 0 13 -95 58 -178 85 -102 34 -127 38 -99 17z"/>
<path d="M3725 9996 c-27 -27 -27 -36 -9 -124 8 -38 24 -14 24 34 0 35 5 50
23 64 21 17 21 20 5 36 -15 16 -18 15 -43 -10z"/>
<path d="M3998 10009 c-14 -6 -29 -17 -32 -25 -6 -16 9 -19 19 -4 9 15 28 12
82 -11 l48 -21 -34 -14 c-39 -16 -35 -24 17 -40 20 -7 29 -12 20 -13 -30 -2
-20 -21 11 -21 31 0 46 13 53 45 3 16 7 13 23 -19 12 -25 21 -34 24 -25 3 8
12 15 19 17 13 2 12 -21 -4 -96 -3 -14 -1 -21 5 -18 5 4 15 31 22 61 23 105
-16 168 -114 180 -111 13 -133 14 -159 4z m245 -86 c-7 -2 -19 -2 -25 0 -7 3
-2 5 12 5 14 0 19 -2 13 -5z"/>
<path d="M4370 9972 c0 -5 9 -17 20 -27 12 -11 19 -28 18 -44 -2 -19 2 -26 17
-29 11 -2 28 -11 37 -19 15 -13 19 -13 40 1 12 9 30 16 40 16 10 0 18 4 18 8
0 14 -23 32 -42 32 -10 0 -18 5 -18 10 0 6 10 10 23 10 24 0 54 16 46 24 -6 7
-133 26 -171 26 -16 0 -28 -4 -28 -8z m90 -52 c0 -5 -2 -10 -4 -10 -3 0 -8 5
-11 10 -3 6 -1 10 4 10 6 0 11 -4 11 -10z"/>
<path d="M4350 9915 c0 -8 5 -15 10 -15 6 0 10 7 10 15 0 8 -4 15 -10 15 -5 0
-10 -7 -10 -15z"/>
<path d="M3030 9851 c0 -12 5 -21 10 -21 6 0 10 6 10 14 0 8 -4 18 -10 21 -5
3 -10 -3 -10 -14z"/>
<path d="M3080 9813 c0 -21 148 -149 211 -181 47 -24 57 -27 39 -12 -14 12
-47 33 -75 47 -28 14 -77 54 -112 91 -35 36 -63 61 -63 55z"/>
<path d="M4192 9694 c-54 -59 -35 -127 45 -153 33 -11 44 -10 81 4 72 29 113
95 77 125 -16 13 -18 9 -15 -28 2 -24 -49 -82 -72 -82 -15 0 -111 76 -117 92
-2 5 7 23 19 40 31 42 20 44 -18 2z"/>
<path d="M4085 9570 c-27 -30 -12 -34 15 -5 13 14 19 25 13 25 -5 0 -18 -9
-28 -20z"/>
<path d="M4461 9554 c0 -11 3 -14 6 -6 3 7 2 16 -1 19 -3 4 -6 -2 -5 -13z"/>
<path d="M4485 9500 c-3 -5 -1 -18 4 -27 9 -16 10 -14 11 10 0 28 -5 34 -15
17z"/>
<path d="M4070 9478 c0 -10 9 -19 23 -22 99 -20 181 -24 302 -13 52 5 60 8 63
27 4 21 1 22 -95 20 -54 -1 -142 0 -195 2 -89 4 -98 2 -98 -14z"/>
<path d="M3771 9446 c-87 -41 -132 -65 -111 -60 41 10 140 56 140 65 0 5 -1 8
-2 8 -2 -1 -14 -7 -27 -13z"/>
<path d="M4210 9391 c0 -27 28 -53 53 -49 24 4 36 28 13 28 -9 0 -25 9 -36 20
-25 25 -30 25 -30 1z"/>
<path d="M4295 9390 c4 -6 11 -8 16 -5 14 9 11 15 -7 15 -8 0 -12 -5 -9 -10z"/>
<path d="M3570 9359 c0 -5 5 -7 10 -4 6 3 10 8 10 11 0 2 -4 4 -10 4 -5 0 -10
-5 -10 -11z"/>
<path d="M4218 9063 c7 -3 16 -2 19 1 4 3 -2 6 -13 5 -11 0 -14 -3 -6 -6z"/>
<path d="M4445 9060 c-3 -5 -1 -10 4 -10 6 0 11 5 11 10 0 6 -2 10 -4 10 -3 0
-8 -4 -11 -10z"/>
<path d="M2570 8980 c0 -5 5 -10 11 -10 5 0 7 5 4 10 -3 6 -8 10 -11 10 -2 0
-4 -4 -4 -10z"/>
<path d="M4770 8900 c0 -6 34 -60 75 -120 42 -60 85 -129 96 -155 11 -25 33
-60 48 -78 87 -101 116 -162 151 -317 34 -148 52 -189 154 -337 40 -60 81
-122 90 -140 19 -39 32 -121 46 -313 6 -80 15 -159 20 -176 6 -16 14 -72 19
-122 4 -51 11 -96 15 -99 14 -14 18 9 9 61 -6 31 -7 56 -4 56 29 -2 106 -119
121 -184 5 -23 10 -129 10 -236 0 -208 10 -333 36 -456 18 -89 21 -280 6 -350
-42 -184 -57 -390 -38 -509 36 -222 49 -351 42 -415 -9 -79 -17 -94 -44 -86
-37 12 -190 187 -277 317 -35 53 -79 111 -96 130 -30 31 -33 32 -37 14 -2 -11
-10 -24 -18 -30 -30 -22 -184 -463 -184 -525 0 -17 -8 -38 -19 -49 -14 -14
-19 -35 -20 -100 -2 -95 -14 -133 -70 -224 -57 -93 -69 -124 -102 -271 -16
-71 -43 -157 -60 -192 -16 -35 -28 -67 -25 -72 2 -4 21 -16 40 -26 54 -29 76
-12 133 101 26 51 51 93 55 93 19 0 1 -171 -20 -192 -5 -5 -31 -15 -58 -22
-38 -9 -52 -19 -63 -41 -12 -25 -12 -30 5 -42 24 -18 75 -17 161 4 61 14 77
14 97 4 13 -8 37 -11 53 -8 15 3 51 10 78 16 70 13 168 65 197 104 47 61 49
72 53 262 2 101 6 188 9 193 3 5 32 15 64 22 50 10 78 10 175 -4 182 -27 228
-6 203 92 -8 28 -12 53 -9 55 9 9 -120 263 -156 307 l-36 44 -1 146 c-1 95 -9
193 -24 285 -26 167 -28 357 -5 490 9 50 20 117 26 150 14 75 5 273 -16 380
-11 54 -19 172 -25 365 -4 157 -11 296 -16 310 -4 14 -31 59 -61 101 -100 143
-107 172 -139 559 -7 83 -8 85 -76 187 -108 162 -145 237 -177 365 -33 129
-67 204 -134 292 -25 33 -66 97 -91 142 -37 69 -171 254 -183 254 -1 0 -3 -5
-3 -10z m487 -3582 c11 -13 46 -62 77 -109 l57 -86 -14 -199 c-8 -114 -11
-226 -6 -259 4 -33 14 -116 23 -185 17 -131 22 -480 8 -480 -5 0 -14 -18 -21
-40 -19 -65 -31 -58 -31 20 0 97 -19 89 -45 -19 -14 -59 -27 -88 -44 -102 -39
-32 -44 -16 -37 107 4 68 3 114 -2 114 -21 0 -30 -30 -34 -117 -6 -109 -22
-143 -68 -143 -16 0 -31 4 -34 9 -3 5 3 48 14 97 20 93 26 204 11 204 -14 0
-21 -27 -36 -140 -15 -117 -29 -139 -103 -159 -45 -13 -152 -14 -152 -2 0 10
24 21 47 21 8 0 30 7 49 16 46 22 56 61 52 209 -3 103 -5 120 -20 123 -13 2
-21 -9 -31 -45 -37 -124 -100 -233 -134 -233 -35 0 -38 25 -10 88 14 31 37
112 50 180 16 76 35 141 51 170 79 141 117 235 127 311 15 127 113 479 155
564 31 61 62 107 73 107 4 0 17 -10 28 -22z m191 -255 c5 -10 7 -24 4 -32 -3
-8 0 -11 7 -7 6 4 11 3 11 -3 0 -6 -9 -15 -19 -21 -16 -8 -20 -7 -20 7 0 10
-3 30 -7 46 -7 31 10 38 24 10z m42 -71 c0 -5 -13 -21 -30 -37 -28 -27 -30
-28 -30 -7 0 11 10 28 22 36 25 18 38 20 38 8z m70 -48 c19 -20 63 -54 97 -76
67 -42 89 -72 142 -188 82 -183 101 -272 59 -284 -43 -11 -133 -6 -200 11 -64
16 -71 16 -134 0 -55 -15 -69 -16 -79 -5 -14 15 -45 196 -45 265 0 45 20 93
39 93 4 0 13 -12 20 -26 9 -20 9 -30 0 -40 -7 -8 -9 -17 -7 -20 3 -3 27 22 53
56 27 33 50 58 53 56 2 -3 -3 -15 -12 -28 -20 -29 -20 -39 0 -31 15 5 15 3 1
-23 -8 -16 -31 -53 -51 -83 -20 -29 -36 -58 -35 -65 0 -6 8 0 17 14 9 14 45
63 80 108 35 46 62 86 59 88 -2 3 -10 -2 -17 -11 -7 -8 -16 -15 -21 -15 -16 0
-9 30 11 47 43 37 7 46 -42 12 l-30 -22 7 24 c4 13 16 38 26 54 13 22 15 35 8
45 -7 10 -12 11 -15 3 -3 -6 -14 -21 -25 -34 -10 -12 -19 -26 -19 -31 0 -4 -7
-8 -15 -8 -21 0 -19 8 11 47 19 25 22 33 10 33 -9 0 -16 2 -16 4 0 12 23 66
28 66 4 0 23 -17 42 -36z m-80 -9 c0 -12 -40 -84 -50 -90 -5 -3 -10 -13 -10
-22 0 -13 3 -13 15 -3 11 9 15 9 15 1 0 -16 -30 -61 -41 -61 -23 0 6 127 37
161 16 18 34 25 34 14z m20 -164 c0 -38 -16 -48 -30 -21 -9 16 -8 25 1 36 18
22 29 17 29 -15z"/>
<path d="M3470 8832 c-20 -16 -21 -23 -13 -48 12 -37 35 -41 63 -12 45 49 2
102 -50 60z m48 -24 c-6 -18 -28 -21 -28 -4 0 9 7 16 16 16 9 0 14 -5 12 -12z"/>
<path d="M4023 8793 c30 -5 35 -18 11 -27 -9 -4 -15 -9 -12 -11 3 -3 18 1 34
10 16 8 38 15 49 16 l20 0 -20 9 c-11 5 -40 8 -65 8 -28 -1 -34 -3 -17 -5z"/>
<path d="M3873 8773 c9 -2 23 -2 30 0 6 3 -1 5 -18 5 -16 0 -22 -2 -12 -5z"/>
<path d="M2422 8523 c-18 -76 -39 -192 -47 -258 -7 -66 -21 -178 -30 -250 -50
-423 -46 -904 11 -1183 17 -82 23 -137 19 -165 -4 -24 -38 -102 -79 -177 l-71
-135 -90 3 c-50 2 -137 10 -195 18 -73 11 -135 13 -211 9 -86 -6 -111 -5 -130
8 -13 8 -46 20 -74 25 -142 31 -187 24 -256 -36 -58 -52 -80 -62 -128 -62 -22
0 -43 -4 -46 -10 -4 -6 7 -10 27 -10 18 0 42 -3 53 -6 15 -4 40 10 88 50 37
30 80 57 96 61 30 6 129 -8 190 -27 31 -10 33 -12 17 -23 -15 -12 -13 -14 16
-25 39 -15 298 -27 298 -14 0 5 26 7 57 5 l58 -4 -82 -21 c-45 -13 -89 -28
-98 -36 -12 -10 -19 -10 -27 -2 -7 7 -29 12 -50 12 -21 0 -38 4 -38 10 0 5 -7
7 -15 4 -27 -11 -16 -22 35 -34 54 -13 72 -11 160 14 103 29 365 68 349 52 -2
-3 -56 -12 -119 -20 -129 -18 -189 -35 -270 -76 -30 -16 -95 -40 -143 -55 -72
-23 -100 -27 -160 -23 -79 6 -161 33 -138 47 28 18 -15 25 -158 26 -129 2
-146 4 -158 21 -8 10 -12 28 -9 38 5 18 4 18 -11 3 -15 -14 -15 -18 1 -41 9
-14 26 -28 39 -30 50 -10 136 -19 192 -21 51 -1 67 -6 104 -33 41 -30 50 -32
125 -32 45 0 108 7 139 15 32 8 78 15 103 15 25 0 43 3 40 8 -15 25 51 62 112
62 34 0 35 -1 16 -15 -22 -18 -9 -17 186 15 114 18 138 17 118 -7 -18 -22 -57
-40 -128 -58 -63 -16 -168 -67 -181 -88 -4 -5 -42 -11 -85 -13 -54 -2 -71 -1
-54 5 14 5 37 9 52 10 33 1 83 19 75 28 -4 3 -26 1 -49 -5 -24 -6 -101 -20
-173 -31 -102 -16 -156 -31 -250 -70 -70 -28 -120 -54 -120 -62 0 -7 16 -24
35 -37 32 -22 42 -23 110 -17 59 5 97 1 170 -15 106 -24 141 -23 312 12 78 16
111 19 119 11 8 -8 1 -42 -25 -124 -77 -250 -90 -389 -76 -794 5 -127 3 -146
-17 -205 -13 -36 -34 -135 -47 -220 -14 -85 -36 -199 -50 -254 -14 -54 -26
-113 -26 -130 0 -85 60 -326 118 -476 119 -308 157 -482 172 -800 11 -207 35
-541 46 -615 5 -39 3 -43 -39 -80 -24 -22 -79 -66 -121 -99 -96 -74 -238 -252
-267 -334 -10 -29 -9 -37 8 -60 11 -15 31 -33 45 -39 35 -18 211 -35 278 -28
200 22 288 61 408 181 45 46 82 89 83 96 0 13 64 69 191 170 99 78 154 162
127 194 -8 10 -10 34 -5 76 7 68 7 68 -53 -15 -69 -95 -204 -169 -311 -171
-25 0 -98 12 -163 27 -65 16 -125 26 -135 23 -15 -5 -17 5 -20 85 l-3 90 30
-16 c17 -8 49 -15 73 -15 24 0 63 -9 87 -20 24 -11 68 -23 98 -26 49 -6 61 -3
126 30 119 60 202 128 231 190 39 82 77 240 79 331 2 88 -18 485 -34 665 -34
383 -37 495 -20 745 l14 200 52 60 c75 87 231 297 238 320 5 14 0 11 -16 -9
-75 -100 -182 -230 -234 -287 l-60 -66 -6 -149 c-8 -179 -38 -395 -82 -591 -3
-13 -1 -23 5 -23 5 0 10 8 10 17 0 28 32 134 39 127 3 -3 9 -69 12 -147 4 -78
14 -214 24 -302 11 -106 18 -251 19 -430 l1 -270 -34 -106 c-32 -102 -36 -109
-83 -145 -48 -37 -84 -59 -173 -103 -53 -27 -127 -27 -185 1 -25 12 -77 24
-118 28 -40 4 -78 12 -84 18 -19 19 -36 156 -52 422 -9 140 -18 287 -22 325
-9 107 -58 294 -113 423 -97 232 -132 366 -147 564 -5 68 -3 97 15 160 12 42
33 148 46 235 15 92 38 196 56 248 29 84 31 95 23 165 -5 41 -8 181 -9 310 0
260 1 265 84 522 34 101 36 117 22 120 -22 5 202 91 319 123 52 14 118 36 145
49 61 28 144 93 176 137 29 41 2 27 -36 -19 -37 -45 -105 -89 -178 -118 -68
-27 -95 -31 -57 -9 l25 15 -30 -7 c-16 -4 -38 -7 -47 -7 -21 0 -12 -16 10 -17
11 0 9 -4 -8 -10 -14 -6 -46 -8 -72 -4 -39 4 -47 3 -42 -8 3 -10 -4 -17 -22
-21 -14 -4 -28 -5 -31 -2 -3 2 -13 -4 -23 -14 -10 -10 -63 -33 -117 -50 -217
-70 -352 -85 -495 -54 -51 11 -96 14 -149 9 -66 -5 -78 -4 -100 14 l-24 20 40
16 c22 8 65 26 95 40 80 35 96 38 127 22 50 -25 151 -37 233 -27 92 12 169 27
234 46 58 16 78 18 53 3 -10 -6 -69 -24 -130 -39 -79 -20 -101 -28 -76 -29 68
-2 349 81 349 103 0 2 -22 -2 -50 -9 -63 -17 -64 -5 -2 22 58 27 98 51 127 80
23 22 78 38 112 31 11 -2 -1 -11 -37 -25 -64 -25 -49 -29 30 -8 30 8 56 12 58
10 4 -3 -97 -35 -161 -51 -15 -3 -30 -11 -34 -17 -4 -6 0 -8 9 -5 8 4 69 21
134 38 66 18 127 36 136 41 25 13 28 11 22 -8 -4 -14 -1 -13 13 4 19 24 75 63
125 89 22 11 33 13 38 4 5 -8 11 -6 20 5 10 12 10 15 -4 15 -9 0 -16 6 -16 13
0 13 128 16 149 3 19 -12 52 4 61 30 9 23 11 24 37 11 16 -8 48 -18 73 -22 25
-4 86 -18 136 -31 50 -12 119 -26 153 -30 54 -6 61 -5 55 10 -4 9 -17 16 -34
16 -16 0 -31 4 -34 9 -6 9 136 21 259 21 45 0 105 4 133 10 28 5 91 14 139 20
48 6 104 13 123 15 32 5 33 5 10 -6 -44 -19 -213 -48 -323 -55 -59 -4 -107
-11 -107 -16 0 -15 179 -3 320 20 174 30 189 33 167 41 -13 5 4 14 55 30 40
13 96 35 123 48 l50 25 -38 -37 c-25 -24 -43 -35 -54 -31 -13 5 -14 4 -3 -9 8
-10 26 -15 49 -13 49 2 58 -5 66 -51 3 -22 13 -47 21 -58 14 -16 15 -8 8 82
-11 164 -11 159 11 163 34 7 72 40 108 94 46 71 67 139 67 217 0 43 10 102 30
170 17 57 30 112 30 122 0 11 5 19 10 19 6 0 10 -58 10 -153 0 -181 16 -253
77 -349 22 -35 55 -89 72 -120 18 -32 40 -62 49 -67 13 -8 16 -33 18 -167 1
-129 8 -194 34 -339 17 -99 38 -223 46 -275 8 -52 27 -131 41 -175 l26 -80
-31 -113 c-18 -62 -32 -123 -32 -135 0 -12 -14 -60 -31 -107 -23 -66 -32 -114
-40 -215 -10 -126 -14 -145 -47 -230 -14 -37 -31 -247 -19 -235 3 3 10 50 15
106 7 67 19 121 36 162 17 40 26 80 26 114 0 73 23 197 54 292 14 43 26 88 26
100 0 11 14 68 30 125 36 126 37 148 5 248 -25 79 -29 102 -65 358 -11 77 -29
190 -41 250 -16 86 -20 129 -15 201 l7 90 -35 50 c-65 90 -164 286 -176 349
-8 37 -10 92 -6 145 4 52 0 144 -9 235 -24 236 -16 390 31 660 3 21 2 26 -5
15 -17 -27 -52 -283 -67 -490 -20 -284 -30 -358 -60 -437 -20 -52 -25 -79 -20
-115 11 -100 -61 -235 -151 -282 -28 -15 -71 -47 -96 -71 -40 -40 -57 -47 -57
-24 0 5 12 15 28 23 52 28 -3 29 -135 3 -297 -60 -522 -78 -818 -66 -126 5
-246 13 -265 18 -19 5 -54 14 -76 20 -39 10 -44 16 -83 94 -23 45 -39 73 -36
62 5 -18 4 -18 -8 -5 -14 15 -43 81 -58 135 -8 29 -8 29 8 10 15 -19 15 -19 9
5 -3 14 -17 61 -31 105 -28 93 -32 69 -11 -75 15 -103 31 -150 76 -221 33 -51
37 -74 15 -83 -17 -6 -19 -24 -6 -45 7 -10 13 -11 30 -1 13 7 35 8 54 4 28 -6
30 -8 12 -15 -11 -4 -32 -8 -47 -8 -14 -1 -40 -12 -56 -26 -38 -32 -44 -31
-32 1 32 84 -10 99 -50 17 -26 -55 -46 -71 -64 -53 -8 8 -5 17 12 30 12 10 22
22 22 27 0 5 11 19 25 31 14 12 25 25 25 29 -1 5 -40 26 -87 48 -81 38 -169
95 -145 95 23 0 68 -22 92 -45 27 -26 148 -80 158 -70 14 13 -78 90 -146 121
-40 19 -104 54 -141 78 -80 53 -99 87 -136 252 -42 185 -49 277 -42 564 10
410 39 684 108 1028 31 157 18 161 -19 5z m40 -1868 c15 -19 25 -24 41 -19 19
6 20 5 9 -8 -10 -13 -7 -23 23 -58 19 -23 35 -45 35 -48 -1 -8 -94 92 -122
131 -24 34 -13 36 14 2z m11 -72 c23 -26 75 -82 115 -125 41 -43 72 -84 69
-91 -2 -7 -18 -11 -38 -10 -19 1 -98 5 -176 9 -118 6 -143 10 -143 22 0 8 18
54 39 101 22 47 45 98 50 114 15 39 36 34 84 -20z m290 -82 c7 -8 -6 -5 -28 8
-56 34 -79 59 -27 30 24 -13 49 -30 55 -38z m-129 -34 l30 -42 -28 25 c-30 27
-52 60 -39 60 4 0 21 -19 37 -43z m64 1 c15 -15 16 -41 0 -36 -6 2 -18 14 -26
26 -12 19 -12 22 0 22 8 0 19 -5 26 -12z m1412 -44 c-72 -23 -259 -54 -314
-53 -40 1 -28 5 54 15 58 8 143 23 190 33 103 22 131 24 70 5z m95 -3 c-11
-10 -154 -45 -220 -55 -56 -8 -27 3 95 35 115 30 139 34 125 20z m125 -31 c0
-5 -5 -10 -11 -10 -5 0 -7 5 -4 10 3 6 8 10 11 10 2 0 4 -4 4 -10z m-1550 -35
c0 -8 -4 -15 -10 -15 -5 0 -7 7 -4 15 4 8 8 15 10 15 2 0 4 -7 4 -15z m128 3
c-3 -7 -13 -15 -24 -17 -16 -3 -17 -1 -5 13 16 19 34 21 29 4z m206 -9 c8 -8
2 -9 -24 -4 -53 11 -73 27 -26 21 22 -3 44 -10 50 -17z m316 11 c21 -13 12
-18 -57 -29 -42 -7 -84 -6 -130 1 -99 15 -92 22 14 15 51 -4 107 -3 125 1 29
6 25 8 -32 13 l-65 6 65 1 c36 1 72 -2 80 -8z m155 0 c4 -6 -10 -10 -35 -10
-25 0 -39 4 -35 10 3 6 19 10 35 10 16 0 32 -4 35 -10z m152 4 c-3 -3 -12 -4
-19 -1 -8 3 -5 6 6 6 11 1 17 -2 13 -5z m-1787 -25 c24 -7 24 -7 -5 -7 -16 0
-48 6 -70 13 l-40 13 45 -5 c25 -4 56 -10 70 -14z m-155 2 l40 -9 -50 0 c-27
0 -70 3 -95 7 l-45 8 55 1 c30 1 73 -3 95 -7z m690 -1 c4 -6 -25 -10 -79 -10
-46 0 -93 -3 -103 -7 -10 -3 -15 -2 -10 3 16 17 182 30 192 14z m1244 -4 c-2
-2 -74 -6 -159 -8 -85 -3 -135 -2 -110 2 46 7 277 13 269 6z m-874 -16 c-3 -5
-10 -10 -16 -10 -5 0 -9 5 -9 10 0 6 7 10 16 10 8 0 12 -4 9 -10z m125 0 c0
-5 -8 -10 -17 -10 -15 0 -16 2 -3 10 19 12 20 12 20 0z m-394 -7 c-4 -4 -40
-11 -79 -14 -40 -4 -88 -10 -107 -13 -33 -6 -33 -6 -10 6 14 6 59 15 100 18
41 4 81 7 89 8 8 1 11 -1 7 -5z m730 -13 c13 0 24 -5 24 -10 0 -6 -11 -8 -25
-5 -14 3 -36 7 -50 10 -14 3 -25 10 -25 15 0 6 9 6 26 0 14 -6 36 -10 50 -10z
m-1061 1 c-24 -22 -211 -81 -257 -81 -50 0 -39 18 19 30 45 9 216 50 243 59 2
0 0 -3 -5 -8z m55 -17 c-41 -13 -79 -22 -85 -20 -13 4 114 45 140 45 11 -1
-14 -11 -55 -25z m327 -3 c-27 -4 -51 -12 -55 -18 -4 -5 -16 -15 -27 -20 -24
-12 -155 -36 -162 -29 -2 2 8 7 24 10 15 3 55 11 88 18 54 11 56 13 25 16 -19
1 -70 -3 -112 -11 -43 -7 -78 -10 -78 -7 0 7 38 14 195 40 28 4 73 8 100 7
l50 0 -48 -6z m-20 -27 c-3 -3 -12 -4 -19 -1 -8 3 -5 6 6 6 11 1 17 -2 13 -5z
m-440 -10 c-3 -3 -12 -4 -19 -1 -8 3 -5 6 6 6 11 1 17 -2 13 -5z m473 -9 c0
-7 -141 -47 -147 -41 -3 2 24 14 59 25 64 20 88 25 88 16z m-310 -59 c0 -3
-26 -21 -57 -40 -72 -45 -191 -92 -284 -111 -84 -18 -82 -18 -73 -3 5 8 0 9
-17 4 -68 -21 -100 -26 -169 -26 -89 0 -126 15 -59 24 24 4 95 11 157 16 134
11 249 40 352 88 81 37 150 59 150 48z m-160 -30 c0 -7 -191 -68 -196 -63 -3
3 34 19 83 35 86 30 113 36 113 28z m-490 -106 c-14 -4 -34 -8 -45 -8 -16 0
-15 2 5 8 14 4 34 8 45 8 16 0 15 -2 -5 -8z m1130 -3822 l-11 -23 20 24 c26
29 26 25 1 -32 -16 -37 -24 -44 -41 -40 -15 4 -28 -4 -50 -31 -17 -20 -36 -36
-42 -36 -6 0 5 17 24 38 20 20 51 58 69 84 34 49 50 58 30 16z m-63 -25 c-20
-27 -42 -48 -49 -48 -7 0 -35 -17 -62 -38 -27 -20 -57 -37 -67 -37 -24 0 -25
29 -1 37 9 4 20 12 25 19 4 7 20 15 37 19 16 3 40 15 54 26 14 11 30 18 34 15
5 -3 19 8 31 24 12 17 24 30 27 30 3 0 -10 -21 -29 -47z m-586 -72 c4 -17 14
-40 23 -50 27 -30 171 -61 281 -61 86 0 101 3 141 26 25 15 47 24 50 22 6 -7
-95 -74 -123 -83 -25 -7 -39 -35 -18 -35 22 0 19 -7 -36 -81 -103 -139 -172
-177 -364 -199 -172 -19 -318 -8 -358 27 -13 13 -17 26 -13 46 6 32 93 161
164 245 40 48 160 139 205 155 9 3 17 11 17 18 0 24 25 1 31 -30z m129 -1 c0
-5 -2 -10 -4 -10 -3 0 -8 5 -11 10 -3 6 -1 10 4 10 6 0 11 -4 11 -10z m275 0
c-3 -5 -18 -10 -33 -9 -24 0 -25 1 -7 9 28 12 47 12 40 0z m-35 -50 c-12 -23
-30 -27 -30 -7 0 17 10 27 27 27 11 0 11 -5 3 -20z"/>
<path d="M4150 8650 c0 -5 5 -10 10 -10 6 0 10 5 10 10 0 6 -4 10 -10 10 -5 0
-10 -4 -10 -10z"/>
<path d="M3830 8509 c0 -5 9 -9 20 -9 11 0 20 2 20 4 0 2 -9 6 -20 9 -11 3
-20 1 -20 -4z"/>
<path d="M3254 8365 c-7 -19 -14 -48 -14 -65 0 -25 4 -30 23 -30 34 0 61 34
60 75 -1 42 -9 55 -34 55 -13 0 -25 -12 -35 -35z m36 -30 c0 -19 -4 -35 -10
-35 -11 0 -14 53 -3 63 11 12 13 8 13 -28z"/>
<path d="M3565 8240 c-3 -5 -1 -10 4 -10 6 0 11 5 11 10 0 6 -2 10 -4 10 -3 0
-8 -4 -11 -10z"/>
<path d="M3478 8233 c7 -3 16 -2 19 1 4 3 -2 6 -13 5 -11 0 -14 -3 -6 -6z"/>
<path d="M3410 8190 c-19 -12 66 -12 95 0 15 6 7 9 -30 9 -27 0 -57 -4 -65 -9z"/>
<path d="M3540 8166 c0 -2 9 -6 20 -9 11 -3 20 -1 20 4 0 5 -9 9 -20 9 -11 0
-20 -2 -20 -4z"/>
<path d="M4614 7994 c-3 -16 -19 -51 -34 -79 -43 -77 -85 -265 -73 -326 10
-50 18 -32 18 44 1 65 29 202 44 211 3 2 4 -26 3 -62 -5 -92 8 -72 19 30 5 46
17 109 26 141 9 32 13 60 10 63 -3 4 -9 -7 -13 -22z"/>
<path d="M3344 7792 c-14 -9 -34 -47 -34 -64 1 -7 7 2 15 20 17 39 40 41 53 5
l10 -28 1 31 c1 20 -5 34 -15 38 -19 7 -17 7 -30 -2z"/>
<path d="M4345 7660 c3 -114 24 -212 47 -226 8 -5 9 -1 3 12 -16 40 -34 133
-44 229 l-10 100 4 -115z"/>
<path d="M3250 7751 c0 -5 -3 -17 -7 -27 -4 -11 -3 -15 4 -11 14 9 24 47 12
47 -5 0 -9 -4 -9 -9z"/>
<path d="M3335 7700 c4 -6 11 -8 16 -5 14 9 11 15 -7 15 -8 0 -12 -5 -9 -10z"/>
<path d="M4810 7385 c13 -14 26 -25 28 -25 3 0 -5 11 -18 25 -13 14 -26 25
-28 25 -3 0 5 -11 18 -25z"/>
<path d="M4260 6958 c0 -46 -3 -101 -5 -123 -4 -31 -3 -35 4 -18 16 35 25 209
12 217 -8 5 -11 -17 -11 -76z"/>
<path d="M4848 6803 c7 -3 16 -2 19 1 4 3 -2 6 -13 5 -11 0 -14 -3 -6 -6z"/>
<path d="M4044 6750 c12 -62 48 -191 53 -186 2 2 -8 51 -23 108 -27 103 -43
144 -30 78z"/>
<path d="M3641 6624 c0 -11 3 -14 6 -6 3 7 2 16 -1 19 -3 4 -6 -2 -5 -13z"/>
<path d="M3661 6580 c1 -8 5 -26 9 -40 l8 -25 1 25 c0 14 -4 32 -9 40 -9 13
-10 13 -9 0z"/>
<path d="M1360 6349 c-19 -10 -44 -21 -54 -24 -39 -11 -6 -16 35 -5 70 19 153
18 173 -3 19 -18 36 -22 36 -9 0 19 -38 40 -84 47 -27 3 -54 8 -60 10 -6 1
-27 -6 -46 -16z"/>
<path d="M4219 6310 c-65 -33 -173 -63 -206 -57 -13 2 -23 0 -23 -4 0 -5 -10
-9 -22 -9 -19 0 -20 2 -8 10 10 7 -16 8 -80 5 -52 -3 -108 -5 -125 -6 -16 -1
17 -7 75 -15 110 -14 161 -11 305 21 138 30 249 86 168 85 -16 -1 -53 -14 -84
-30z"/>
<path d="M4132 6303 c-24 -8 -41 -17 -38 -20 6 -6 77 16 91 28 13 13 -2 10
-53 -8z"/>
<path d="M3510 6280 c-41 -6 -39 -7 28 -8 42 -1 72 2 72 8 0 11 -30 11 -100 0z"/>
<path d="M1612 6218 c-62 -14 -48 -18 37 -11 44 4 67 9 59 14 -16 11 -40 10
-96 -3z"/>
<path d="M2110 6204 c-36 -8 -108 -18 -160 -23 -89 -7 -93 -8 -65 -20 26 -11
48 -10 165 14 126 25 194 45 145 44 -11 -1 -49 -8 -85 -15z"/>
<path d="M4373 6133 c-4 -32 -8 -152 -8 -268 0 -207 0 -210 25 -244 13 -20 27
-57 31 -85 5 -43 2 -59 -21 -106 -15 -30 -37 -83 -50 -117 -21 -60 -22 -68
-11 -188 24 -267 14 -416 -45 -720 -24 -123 -35 -159 -98 -333 -24 -65 -27
-87 -27 -195 0 -67 7 -162 16 -212 32 -191 30 -287 -9 -559 -20 -136 -44 -348
-52 -470 -8 -121 -26 -295 -40 -386 -20 -129 -28 -230 -35 -460 -12 -404 -31
-631 -53 -648 -6 -5 -69 -21 -141 -37 -71 -15 -146 -33 -165 -40 -38 -13 -235
-20 -263 -9 -9 3 -17 13 -17 21 0 12 -3 13 -15 3 -8 -6 -32 -10 -54 -8 -22 1
-42 -1 -43 -6 -6 -18 59 -28 192 -30 131 -1 255 17 505 74 21 5 40 8 42 7 6
-7 -37 -295 -47 -318 -13 -28 -47 -49 -79 -49 -10 0 -32 -7 -47 -15 -45 -23
-390 -22 -424 2 -22 16 -23 16 -17 -2 7 -17 2 -18 -65 -12 -91 8 -138 23 -138
46 0 9 -5 22 -11 28 -7 7 -8 17 -1 29 5 11 15 49 21 87 13 78 27 119 44 129 9
5 9 10 -1 20 -17 17 -15 28 7 28 11 0 23 4 26 10 3 5 -4 65 -16 132 -22 119
-23 148 -24 838 -2 492 -6 757 -15 850 -7 74 -13 232 -13 350 0 236 10 318 79
639 l35 164 -31 180 c-17 99 -40 241 -50 315 -10 74 -22 137 -26 141 -14 13 7
-216 33 -362 37 -209 36 -321 -6 -532 -18 -88 -40 -224 -51 -301 -19 -147 -17
-238 10 -554 19 -222 23 -521 10 -746 -10 -180 -10 -279 1 -559 19 -471 18
-507 -14 -650 -15 -66 -30 -149 -33 -185 -6 -60 -4 -67 17 -86 26 -22 91 -44
132 -44 14 0 29 -4 32 -10 3 -5 -30 -53 -74 -105 -50 -59 -97 -128 -123 -181
l-42 -86 -96 7 c-145 10 -240 30 -311 63 -35 17 -84 33 -109 37 -25 4 -59 13
-76 20 -32 15 -199 45 -244 45 l-25 -1 22 -18 c21 -17 151 -43 208 -41 28 1
193 -35 202 -44 4 -4 -13 -4 -37 0 -65 10 -39 -13 30 -26 96 -18 70 -26 -37
-11 -29 4 -53 4 -53 0 0 -4 24 -10 53 -14 28 -4 61 -11 72 -16 18 -7 18 -8 -5
-9 -24 -2 -23 -2 5 -11 17 -4 53 -11 80 -15 40 -5 46 -8 30 -15 -13 -6 -3 -7
32 -4 30 3 54 1 58 -5 3 -5 25 -11 48 -11 59 -2 102 -12 99 -24 -1 -6 -12 -10
-25 -11 -46 -1 -57 -4 -57 -14 0 -5 18 -10 40 -10 33 0 42 -4 49 -22 8 -22 9
-22 30 12 12 19 24 52 27 73 4 22 12 37 20 37 8 0 14 7 14 16 0 29 117 238
152 271 l33 33 75 -30 c183 -71 200 -75 312 -75 l106 0 6 -35 c13 -76 6 -214
-14 -270 -18 -54 -19 -73 0 -54 21 21 40 139 50 313 16 279 14 269 61 281 84
23 97 101 87 500 -1 41 3 165 10 275 7 110 16 306 22 435 7 160 16 264 29 325
22 103 37 232 46 390 8 152 31 353 60 527 29 174 31 237 9 418 -9 74 -17 205
-18 290 -1 154 -1 156 36 265 46 137 60 193 95 375 25 137 27 162 28 450 0
168 5 316 10 330 9 24 9 24 15 -10 5 -31 9 -35 47 -42 87 -14 128 -50 118
-100 -5 -25 -4 -29 4 -18 16 22 13 72 -5 98 -22 32 -7 43 17 13 10 -13 19 -38
19 -57 0 -19 4 -34 10 -34 16 0 22 47 9 72 -22 42 -74 98 -91 98 -9 0 -18 6
-21 13 -3 9 -8 9 -21 -2 -15 -12 -19 -12 -33 2 -13 13 -14 22 -4 61 6 25 11
87 11 139 0 70 4 96 13 100 8 3 31 39 51 81 21 42 43 76 48 76 6 0 4 8 -5 18
-10 10 -17 33 -17 50 0 24 -12 45 -50 87 -36 40 -50 63 -50 84 0 16 -3 36 -6
45 -4 10 0 18 11 22 21 8 95 -13 95 -27 0 -6 -7 -8 -16 -5 -19 7 -64 -3 -64
-15 0 -5 16 -9 35 -9 20 0 48 -9 63 -20 24 -17 32 -18 64 -8 33 10 40 9 58 -7
21 -19 50 -102 50 -143 0 -14 14 -48 31 -76 27 -43 33 -64 39 -141 3 -49 11
-99 17 -110 18 -35 25 -95 13 -110 -7 -8 -9 -19 -5 -25 4 -7 -9 -29 -31 -51
-34 -34 -38 -45 -42 -99 -4 -60 -6 -62 -60 -108 -36 -32 -63 -65 -80 -102 -28
-60 -24 -62 -46 28 -5 17 -13 32 -18 32 -6 0 -7 -11 -3 -27 3 -16 7 -47 8 -70
3 -76 29 -67 73 25 29 62 37 70 106 108 53 30 70 63 61 119 -5 29 -1 41 19 63
47 51 58 75 58 130 0 38 -6 61 -21 81 -15 20 -23 52 -29 117 -9 96 -19 131
-51 175 -12 18 -22 52 -26 95 -5 50 -12 73 -31 96 -24 28 -29 30 -79 26 -45
-4 -53 -2 -53 12 0 10 -12 29 -26 43 -24 24 -46 32 -114 39 -15 2 -29 12 -35
26 -15 35 -23 26 -32 -35z m36 -256 c1 -16 -3 -26 -9 -22 -5 3 -9 36 -9 73 1
66 2 66 10 22 4 -25 8 -58 8 -73z m71 26 c0 -37 -24 -22 -28 17 -3 30 -2 32
12 21 9 -8 16 -25 16 -38z m-5 -90 c-4 -10 -10 -28 -12 -41 -9 -38 -23 -35
-23 6 0 42 5 52 28 52 10 0 12 -6 7 -17z m48 -6 c9 -24 -54 -139 -69 -125 -6
7 48 138 57 138 4 0 9 -6 12 -13z m-103 -12 c0 -8 -4 -15 -10 -15 -5 0 -10 7
-10 15 0 8 5 15 10 15 6 0 10 -7 10 -15z m-3 -107 c-3 -8 -6 -5 -6 6 -1 11 2
17 5 13 3 -3 4 -12 1 -19z m7 -273 c-4 -8 -8 -15 -10 -15 -2 0 -4 7 -4 15 0 8
4 15 10 15 5 0 7 -7 4 -15z m50 -111 c26 -13 31 -20 23 -29 -19 -21 -77 3 -77
31 0 18 12 18 54 -2z m-604 -4614 c0 -5 -7 -10 -16 -10 -8 0 -12 5 -9 10 3 6
10 10 16 10 5 0 9 -4 9 -10z m-270 -30 c0 -5 -4 -10 -10 -10 -5 0 -10 5 -10
10 0 6 5 10 10 10 6 0 10 -4 10 -10z m210 -20 c0 -5 -4 -10 -9 -10 -6 0 -13 5
-16 10 -3 6 1 10 9 10 9 0 16 -4 16 -10z m-330 -29 c0 -5 8 -12 18 -14 9 -2 0
-4 -20 -4 -37 0 -46 6 -31 20 10 10 33 8 33 -2z m350 -7 c0 -20 -40 -87 -47
-80 -3 3 0 18 6 34 7 16 11 33 10 38 -3 18 1 24 16 24 8 0 15 -7 15 -16z
m-110 -34 c0 -5 -5 -10 -11 -10 -5 0 -7 5 -4 10 3 6 8 10 11 10 2 0 4 -4 4
-10z m50 -4 c0 -2 -3 -11 -6 -20 -9 -23 -24 -20 -24 4 0 11 7 20 15 20 8 0 15
-2 15 -4z m96 -33 c-11 -11 -19 6 -11 24 8 17 8 17 12 0 3 -10 2 -21 -1 -24z
m-156 -3 c0 -5 -4 -10 -10 -10 -5 0 -10 5 -10 10 0 6 5 10 10 10 6 0 10 -4 10
-10z m-1333 -76 c-3 -3 -12 -4 -19 -1 -8 3 -5 6 6 6 11 1 17 -2 13 -5z m608
-155 c55 -6 108 -12 118 -12 21 -2 22 -11 2 -27 -13 -10 -40 -9 -148 10 -72
12 -139 26 -147 31 -21 12 53 11 175 -2z"/>
<path d="M5054 5942 c8 -13 71 -32 101 -31 11 0 0 7 -25 14 -25 7 -54 16 -64
21 -13 5 -17 4 -12 -4z"/>
<path d="M4585 5890 c3 -5 10 -10 16 -10 5 0 9 5 9 10 0 6 -7 10 -16 10 -8 0
-12 -4 -9 -10z"/>
<path d="M3045 5860 c-4 -12 -5 -24 -2 -27 3 -2 8 5 12 17 4 12 5 24 2 27 -3
2 -8 -5 -12 -17z"/>
<path d="M4620 5834 c0 -8 5 -12 10 -9 6 3 10 10 10 16 0 5 -4 9 -10 9 -5 0
-10 -7 -10 -16z"/>
<path d="M3021 5660 c-1 -56 2 -69 100 -372 44 -137 84 -248 88 -248 9 0 0 32
-53 190 -68 205 -98 308 -115 388 -17 77 -19 82 -20 42z"/>
<path d="M4591 5585 c-17 -20 -31 -43 -31 -53 0 -12 4 -10 17 8 9 14 27 37 41
53 14 15 21 27 15 27 -6 0 -25 -16 -42 -35z"/>
<path d="M4630 5436 c0 -19 5 -38 10 -41 6 -4 10 10 10 34 0 23 -4 41 -10 41
-5 0 -10 -15 -10 -34z"/>
<path d="M4490 5422 c0 -31 29 -62 58 -62 l27 1 -27 15 c-15 8 -31 26 -34 39
-7 29 -24 34 -24 7z"/>
<path d="M4646 5331 c-22 -23 -36 -44 -32 -48 4 -5 19 5 32 20 19 23 27 26 43
17 32 -17 48 -11 25 8 -11 10 -23 23 -25 30 -3 8 -19 -3 -43 -27z"/>
<path d="M3240 4851 c0 -20 -2 -21 -15 -11 -8 7 -15 8 -15 2 0 -5 7 -15 15
-22 8 -7 19 -27 24 -44 9 -29 9 -28 10 19 0 28 -4 57 -9 65 -8 12 -10 10 -10
-9z"/>
<path d="M2673 3890 c0 -30 2 -43 4 -27 2 15 2 39 0 55 -2 15 -4 2 -4 -28z"/>
<path d="M2502 3874 c-15 -58 -23 -142 -13 -124 10 17 32 152 26 158 -2 2 -8
-13 -13 -34z"/>
<path d="M1960 3860 c0 -5 5 -10 11 -10 5 0 7 5 4 10 -3 6 -8 10 -11 10 -2 0
-4 -4 -4 -10z"/>
<path d="M2610 3854 c0 -36 21 -139 31 -148 12 -13 12 -15 -6 78 -15 80 -25
107 -25 70z"/>
<path d="M2733 3835 c0 -22 2 -30 4 -17 2 12 2 30 0 40 -3 9 -5 -1 -4 -23z"/>
<path d="M2438 3805 c-11 -60 -10 -101 3 -88 5 5 9 37 7 69 -3 58 -3 58 -10
19z"/>
<path d="M2565 3743 c0 -100 -11 -180 -23 -168 -4 3 -13 25 -19 48 l-13 42 6
-50 c2 -27 7 -71 11 -97 7 -60 -5 -147 -18 -127 -5 8 -9 28 -9 44 -1 53 -47
251 -56 242 -3 -3 4 -45 16 -93 13 -55 24 -139 27 -216 3 -71 10 -128 14 -128
5 0 9 11 9 25 0 14 5 25 10 25 6 0 10 -4 10 -10 0 -5 4 -10 9 -10 6 0 5 15 -1
37 -10 36 -2 131 10 119 3 -4 16 -53 29 -109 21 -97 22 -99 17 -37 -4 59 14
192 29 207 3 3 11 -13 18 -36 8 -29 9 -54 2 -90 -11 -54 1 -73 12 -21 4 17 11
30 16 30 15 0 0 70 -23 110 -16 28 -19 46 -14 90 5 51 5 53 -7 25 -8 -16 -19
-69 -27 -117 -7 -49 -16 -88 -20 -88 -18 0 -26 113 -14 183 14 78 17 221 5
250 -4 10 -7 -26 -6 -80z"/>
<path d="M4093 3773 c-14 -32 -41 -91 -59 -132 -38 -82 -39 -85 -23 -75 19 11
127 264 113 264 -3 0 -17 -26 -31 -57z"/>
<path d="M2090 3795 c0 -8 2 -15 4 -15 2 0 6 7 10 15 3 8 1 15 -4 15 -6 0 -10
-7 -10 -15z"/>
<path d="M2286 3789 c-9 -23 -36 -149 -36 -162 0 -7 4 -6 9 3 11 19 42 163 36
169 -3 2 -7 -2 -9 -10z"/>
<path d="M2013 3730 c0 -30 2 -43 4 -27 2 15 2 39 0 55 -2 15 -4 2 -4 -28z"/>
<path d="M3393 3695 c3 -49 12 -111 21 -136 46 -132 73 -164 32 -37 -14 41
-28 111 -32 154 -10 115 -26 130 -21 19z"/>
<path d="M2702 3720 c0 -14 2 -19 5 -12 2 6 2 18 0 25 -3 6 -5 1 -5 -13z"/>
<path d="M2352 3672 c-8 -35 -11 -66 -9 -68 8 -8 29 82 25 107 -2 15 -8 1 -16
-39z"/>
<path d="M2671 3704 c0 -11 3 -14 6 -6 3 7 2 16 -1 19 -3 4 -6 -2 -5 -13z"/>
<path d="M2151 3619 c-20 -138 -37 -138 -32 1 1 37 0 42 -10 27 -17 -28 -5
-148 24 -247 14 -47 26 -78 27 -70 4 34 18 -45 29 -156 7 -65 14 -120 16 -123
9 -8 4 84 -10 204 -8 66 -15 163 -15 215 -1 75 -3 90 -12 70 -5 -14 -7 -55 -5
-93 6 -74 -8 -84 -18 -12 -5 27 0 80 10 138 9 52 15 103 13 113 -2 11 -10 -20
-17 -67z"/>
<path d="M2407 3635 c9 -98 24 -140 18 -48 -3 39 -9 82 -15 95 -6 16 -7 2 -3
-47z"/>
<path d="M2066 3623 c-4 -27 -9 -64 -12 -83 -4 -28 -3 -32 6 -18 11 18 27 148
18 148 -3 0 -9 -21 -12 -47z"/>
<path d="M2762 3545 c0 -68 2 -75 10 -48 7 21 7 47 0 80 -10 47 -10 47 -10
-32z"/>
<path d="M2207 3547 c-11 -51 -10 -178 1 -189 5 -5 7 15 5 49 -5 93 16 17 25
-92 l8 -90 8 60 c17 128 21 127 40 -10 17 -134 34 -190 22 -75 -4 36 -11 114
-15 173 -5 59 -11 111 -14 114 -7 6 -27 -63 -27 -91 0 -64 -38 68 -43 149 l-2
40 -8 -38z"/>
<path d="M2314 3521 c4 -24 13 -49 20 -55 7 -6 23 -47 36 -91 12 -44 27 -84
32 -90 14 -14 2 32 -39 155 -39 117 -60 151 -49 81z"/>
<path d="M2380 3528 c0 -4 11 -57 24 -120 14 -62 28 -141 32 -176 8 -76 23
-93 17 -19 -7 75 -52 300 -64 312 -5 5 -9 6 -9 3z"/>
<path d="M2721 3344 c0 -38 4 -87 9 -109 5 -26 6 -3 3 65 -7 121 -13 146 -12
44z"/>
<path d="M2691 3300 c1 -8 5 -26 9 -40 l8 -25 1 25 c0 14 -4 32 -9 40 -9 13
-10 13 -9 0z"/>
<path d="M2756 3253 c-4 -9 -2 -21 4 -27 7 -7 10 -2 10 17 0 31 -5 34 -14 10z"/>
<path d="M2245 3170 c3 -5 8 -10 11 -10 2 0 4 5 4 10 0 6 -5 10 -11 10 -5 0
-7 -4 -4 -10z"/>
<path d="M2926 2700 c10 -47 10 -96 1 -150 -11 -63 8 -39 22 28 16 76 14 107
-10 133 l-20 24 7 -35z"/>
<path d="M3382 1130 c0 -14 2 -19 5 -12 2 6 2 18 0 25 -3 6 -5 1 -5 -13z"/>
<path d="M1931 756 c17 -18 287 -37 414 -29 l130 8 -200 6 c-110 3 -234 10
-275 14 -41 4 -72 5 -69 1z"/>
<path d="M1855 705 c25 -11 794 -106 844 -104 76 3 -139 35 -394 59 -66 7
-149 18 -185 25 -61 13 -286 30 -265 20z"/>
<path d="M2281 696 c2 -2 56 -6 119 -9 66 -3 102 -2 85 2 -30 9 -212 15 -204
7z"/>
<path d="M1743 663 c9 -2 25 -2 35 0 9 3 1 5 -18 5 -19 0 -27 -2 -17 -5z"/>
<path d="M1823 653 c9 -2 23 -2 30 0 6 3 -1 5 -18 5 -16 0 -22 -2 -12 -5z"/>
<path d="M1986 652 c-3 -5 4 -12 17 -16 34 -9 67 -7 67 4 0 6 -11 10 -24 10
-13 0 -31 3 -39 6 -8 3 -18 1 -21 -4z"/>
<path d="M2100 642 c0 -17 32 -24 120 -28 l85 -4 -60 14 c-93 22 -145 28 -145
18z"/>
<path d="M2360 591 c22 -13 150 -31 220 -31 38 0 59 -4 55 -10 -6 -9 66 -17
90 -9 6 2 25 2 44 2 22 -1 30 2 24 8 -6 6 -70 15 -144 20 -74 5 -161 14 -194
19 -77 13 -116 13 -95 1z"/>
<path d="M2128 569 c13 -5 55 -12 93 -15 37 -4 66 -10 64 -15 -3 -4 0 -11 6
-15 8 -5 9 -3 4 6 -6 10 2 12 41 7 92 -11 459 -57 487 -60 15 -2 27 0 27 4 0
7 -78 20 -280 45 -69 8 -190 24 -270 34 -80 11 -156 19 -170 19 l-25 0 23 -10z"/>
<path d="M2040 550 c0 -5 5 -10 10 -10 6 0 10 5 10 10 0 6 -4 10 -10 10 -5 0
-10 -4 -10 -10z"/>
<path d="M1930 510 c8 -5 26 -10 39 -10 32 0 24 6 -19 14 -25 4 -31 3 -20 -4z"/>
<path d="M2170 500 c0 -5 5 -10 11 -10 5 0 7 5 4 10 -3 6 -8 10 -11 10 -2 0
-4 -4 -4 -10z"/>
<path d="M2270 507 c3 -2 73 -12 155 -22 83 -9 179 -22 215 -30 36 -7 95 -16
133 -20 37 -4 70 -12 74 -18 4 -6 -14 -7 -53 -2 -39 4 -56 3 -49 -3 6 -6 57
-13 115 -17 112 -7 119 1 25 31 -27 8 -59 19 -70 24 -11 5 -49 11 -85 14 -36
2 -108 11 -160 20 -98 16 -309 33 -300 23z"/>
<path d="M1890 470 c8 -5 33 -9 55 -9 31 0 36 2 20 9 -29 13 -94 13 -75 0z"/>
<path d="M2005 460 c21 -8 296 -51 329 -50 42 0 4 9 -142 34 -158 27 -226 33
-187 16z"/>
<path d="M2460 400 c0 -5 14 -10 31 -10 17 0 28 4 24 10 -3 6 -17 10 -31 10
-13 0 -24 -4 -24 -10z"/>
<path d="M2550 390 c0 -5 12 -10 28 -9 24 0 25 1 7 9 -27 12 -35 12 -35 0z"/>
<path d="M2358 373 c7 -3 16 -2 19 1 4 3 -2 6 -13 5 -11 0 -14 -3 -6 -6z"/>
<path d="M2804 371 c4 -6 26 -11 49 -11 23 0 57 -4 74 -9 18 -5 35 -6 38 -1 7
12 -15 18 -95 26 -54 5 -71 4 -66 -5z"/>
<path d="M2260 352 c36 -23 441 -75 410 -53 -8 6 -33 11 -55 11 -38 0 -282 33
-341 45 -20 4 -24 3 -14 -3z"/>
<path d="M2663 263 c9 -2 25 -2 35 0 9 3 1 5 -18 5 -19 0 -27 -2 -17 -5z"/>
<path d="M2825 230 c28 -12 37 -12 30 0 -3 6 -16 10 -28 9 -21 0 -21 -1 -2 -9z"/>
<path d="M2945 200 c27 -12 35 -12 35 0 0 6 -12 10 -27 9 -25 0 -26 -1 -8 -9z"/>
<path d="M3152 134 c2 -10 14 -24 28 -31 61 -31 121 -53 144 -53 14 0 28 -5
32 -11 4 -8 9 -7 16 2 7 11 11 11 15 2 3 -8 24 -13 53 -13 33 0 50 -5 54 -15
7 -20 35 -19 43 1 5 12 18 15 69 12 34 -1 66 1 70 5 4 4 18 7 30 7 13 0 36 12
51 26 31 27 32 27 -57 3 -25 -7 -101 -12 -170 -12 -142 0 -232 18 -313 60 -71
38 -69 38 -65 17z"/>
<path d="M3080 111 c0 -23 126 -88 152 -78 7 2 -4 9 -25 15 -21 6 -53 22 -70
35 -46 34 -57 39 -57 28z"/>
<path d="M3450 10 c0 -5 5 -10 10 -10 6 0 10 5 10 10 0 6 -4 10 -10 10 -5 0
-10 -4 -10 -10z"/>
</g>
</svg>
